<svg width="55" height="50" viewBox="0 0 55 50" fill="none" xmlns="http://www.w3.org/2000/svg">
<g clip-path="url(#clip0_10_20)">
<path d="M27.5 15.625C28.4117 15.625 29.286 15.9542 29.9307 16.5403C30.5753 17.1263 30.9375 17.9212 30.9375 18.75V21.875H24.0625V18.75C24.0625 17.9212 24.4247 17.1263 25.0693 16.5403C25.714 15.9542 26.5883 15.625 27.5 15.625ZM34.375 22.1125V18.75C34.375 17.0924 33.6507 15.5027 32.3614 14.3306C31.072 13.1585 29.3234 12.5 27.5 12.5C25.6766 12.5 23.928 13.1585 22.6386 14.3306C21.3493 15.5027 20.625 17.0924 20.625 18.75V22.1125C18.7687 22.6313 17.1875 23.9781 17.1875 25.9375V33.4375C17.1875 35.9875 19.8722 37.5 22.3438 37.5H32.6562C35.1278 37.5 37.8125 35.9875 37.8125 33.4375V25.9375C37.8125 23.9781 36.2313 22.6313 34.375 22.1125Z" fill="black"/>
<path d="M13.75 0C11.9266 0 10.178 0.65848 8.88864 1.83058C7.59933 3.00269 6.875 4.5924 6.875 6.25V43.75C6.875 45.4076 7.59933 46.9973 8.88864 48.1694C10.178 49.3415 11.9266 50 13.75 50H41.25C43.0734 50 44.822 49.3415 46.1114 48.1694C47.4007 46.9973 48.125 45.4076 48.125 43.75V6.25C48.125 4.5924 47.4007 3.00269 46.1114 1.83058C44.822 0.65848 43.0734 0 41.25 0L13.75 0ZM13.75 3.125H41.25C42.1617 3.125 43.036 3.45424 43.6807 4.04029C44.3253 4.62634 44.6875 5.4212 44.6875 6.25V43.75C44.6875 44.5788 44.3253 45.3737 43.6807 45.9597C43.036 46.5458 42.1617 46.875 41.25 46.875H13.75C12.8383 46.875 11.964 46.5458 11.3193 45.9597C10.6747 45.3737 10.3125 44.5788 10.3125 43.75V6.25C10.3125 5.4212 10.6747 4.62634 11.3193 4.04029C11.964 3.45424 12.8383 3.125 13.75 3.125Z" fill="black"/>
</g>
<defs>
<clipPath id="clip0_10_20">
<rect width="55" height="50" fill="white"/>
</clipPath>
</defs>
</svg>
