<svg width="60" height="60" viewBox="0 0 60 60" fill="none" xmlns="http://www.w3.org/2000/svg">
<g clip-path="url(#clip0_12_65)">
<path d="M3.75 -9.93256e-07L0 3.75L8.25 15.3037C8.59731 15.7903 9.05591 16.1867 9.58755 16.4601C10.1192 16.7334 10.7085 16.8757 11.3063 16.875H11.5688C12.0618 16.8746 12.5501 16.9715 13.0057 17.16C13.4612 17.3485 13.8752 17.6251 14.2238 17.9738L24.255 28.005L14.4412 37.9575C12.7627 37.4634 10.9922 37.3672 9.26999 37.6766C7.54783 37.986 5.92145 38.6925 4.51987 39.7399C3.11829 40.7874 1.98008 42.147 1.19551 43.711C0.410948 45.275 0.00162075 47.0003 0 48.75C0.00224799 50.3623 0.351014 51.9552 1.02267 53.4209C1.69432 54.8866 2.67317 56.1909 3.8929 57.2452C5.11262 58.2996 6.54473 59.0795 8.09218 59.532C9.63964 59.9846 11.2663 60.0992 12.8619 59.8682C14.4576 59.6372 15.9849 59.0659 17.3405 58.1931C18.696 57.3202 19.8482 56.1662 20.7188 54.8092C21.5894 53.4522 22.1582 51.9239 22.3865 50.3279C22.6149 48.7319 22.4976 47.1055 22.0425 45.5588L31.995 35.745L35.625 39.375L34.4812 42.8025C34.2615 43.4631 34.23 44.1719 34.3902 44.8495C34.5505 45.527 34.8963 46.1466 35.3888 46.6387L47.6512 58.9012C47.9987 59.2507 48.4118 59.528 48.8668 59.7172C49.3218 59.9065 49.8097 60.0039 50.3025 60.0039C50.7953 60.0039 51.2832 59.9065 51.7382 59.7172C52.1932 59.528 52.6063 59.2507 52.9538 58.9012L58.9012 52.9538C59.2507 52.6063 59.528 52.1932 59.7172 51.7382C59.9065 51.2832 60.0039 50.7953 60.0039 50.3025C60.0039 49.8097 59.9065 49.3218 59.7172 48.8668C59.528 48.4118 59.2507 47.9987 58.9012 47.6512L46.6388 35.3887C46.1466 34.8963 45.527 34.5505 44.8495 34.3902C44.1719 34.23 43.4632 34.2615 42.8025 34.4812L39.375 35.625L35.775 32.025L45.825 22.1137C47.4922 22.5588 49.2393 22.615 50.9317 22.278C52.6241 21.9411 54.2164 21.22 55.586 20.1703C56.9557 19.1206 58.0659 17.7705 58.8312 16.2239C59.5965 14.6773 59.9964 12.9756 60 11.25C60 10.2375 59.8725 9.26625 59.6175 8.33625L51.5925 16.365L45 15L43.635 8.41125L51.6637 0.382499C49.7539 -0.131021 47.7423 -0.13198 45.8319 0.37972C43.9216 0.89142 42.1798 1.89769 40.7823 3.29711C39.3848 4.69652 38.3809 6.43962 37.8718 8.3507C37.3627 10.2618 37.3664 12.2733 37.8825 14.1825L27.9825 24.225L17.9738 14.2237C17.2704 13.5207 16.8752 12.567 16.875 11.5725V11.3062C16.8751 10.7091 16.7325 10.1206 16.4592 9.58963C16.1859 9.05869 15.7898 8.60069 15.3037 8.25375L3.75 -9.93256e-07ZM39.9225 39.9225C40.0967 39.7479 40.3036 39.6094 40.5314 39.5148C40.7592 39.4203 41.0034 39.3716 41.25 39.3716C41.4966 39.3716 41.7408 39.4203 41.9686 39.5148C42.1964 39.6094 42.4033 39.7479 42.5775 39.9225L53.505 50.8537C53.8465 51.2074 54.0355 51.681 54.0313 52.1726C54.027 52.6642 53.8298 53.1345 53.4822 53.4822C53.1345 53.8298 52.6642 54.027 52.1726 54.0313C51.681 54.0355 51.2074 53.8465 50.8537 53.505L39.9225 42.5775C39.7479 42.4033 39.6094 42.1964 39.5148 41.9686C39.4203 41.7408 39.3717 41.4966 39.3717 41.25C39.3717 41.0034 39.4203 40.7592 39.5148 40.5314C39.6094 40.3036 39.7479 40.0967 39.9225 39.9225ZM11.25 41.25L13.0162 42.1575L15 42.255L16.0763 43.9237L17.745 45L17.8425 46.9837L18.75 48.75L17.8425 50.5162L17.745 52.5L16.0763 53.5762L15 55.245L13.0162 55.3425L11.25 56.25L9.48375 55.3425L7.5 55.245L6.42375 53.5762L4.755 52.5L4.6575 50.5162L3.75 48.75L4.6575 46.9837L4.755 45L6.42375 43.9237L7.5 42.255L9.48375 42.1575L11.25 41.25Z" fill="black"/>
</g>
<defs>
<clipPath id="clip0_12_65">
<rect width="60" height="60" fill="white"/>
</clipPath>
</defs>
</svg>
