<svg width="40" height="40" viewBox="0 0 40 40" fill="none" xmlns="http://www.w3.org/2000/svg">
<path fill-rule="evenodd" clip-rule="evenodd" d="M4.71368 1.27543C5.15111 0.838647 5.67638 0.499821 6.25467 0.281401C6.83296 0.06298 7.45106 -0.0300475 8.06803 0.00848303C8.68499 0.0470136 9.28672 0.216222 9.83333 0.504896C10.38 0.793569 10.859 1.19512 11.2387 1.68293L15.7262 7.44793C16.5487 8.50543 16.8387 9.88293 16.5137 11.1829L15.1462 16.6579C15.076 16.9415 15.08 17.2384 15.158 17.52C15.2359 17.8016 15.3851 18.0583 15.5912 18.2654L21.7337 24.4079C21.941 24.6144 22.1982 24.7638 22.4803 24.8418C22.7623 24.9198 23.0597 24.9236 23.3437 24.8529L28.8162 23.4854C29.4578 23.326 30.1272 23.314 30.7741 23.4504C31.421 23.5868 32.0286 23.868 32.5512 24.2729L38.3162 28.7579C40.3887 30.3704 40.5787 33.4329 38.7237 35.2854L36.1387 37.8704C34.2887 39.7204 31.5237 40.5329 28.9462 39.6254C22.3479 37.3069 16.3575 33.5298 11.4212 28.5754C6.46711 23.6398 2.69006 17.6504 0.371177 11.0529C-0.533823 8.47793 0.278677 5.71043 2.12868 3.86043L4.71368 1.27543Z" fill="black"/>
</svg>
