<svg width="42" height="20" viewBox="0 0 42 20" fill="none" xmlns="http://www.w3.org/2000/svg">
<path fill-rule="evenodd" clip-rule="evenodd" d="M42.0027 9.84513C42.0027 9.55505 41.8446 9.27685 41.5633 9.07173C41.282 8.86662 40.9005 8.75138 40.5027 8.75138H5.12368L14.5647 1.86951C14.7041 1.76781 14.8148 1.64709 14.8903 1.51422C14.9657 1.38135 15.0046 1.23895 15.0046 1.09513C15.0046 0.951317 14.9657 0.80891 14.8903 0.676043C14.8148 0.543175 14.7041 0.422449 14.5647 0.320756C14.4252 0.219064 14.2596 0.138398 14.0774 0.083362C13.8952 0.0283265 13.6999 0 13.5027 0C13.3054 0 13.1101 0.0283265 12.9279 0.083362C12.7457 0.138398 12.5801 0.219064 12.4407 0.320756L0.440681 9.07076C0.300992 9.17236 0.190163 9.29305 0.114544 9.42593C0.0389244 9.55881 0 9.70126 0 9.84513C0 9.989 0.0389244 10.1314 0.114544 10.2643C0.190163 10.3972 0.300992 10.5179 0.440681 10.6195L12.4407 19.3695C12.5801 19.4712 12.7457 19.5519 12.9279 19.6069C13.1101 19.6619 13.3054 19.6903 13.5027 19.6903C13.6999 19.6903 13.8952 19.6619 14.0774 19.6069C14.2596 19.5519 14.4252 19.4712 14.5647 19.3695C14.7041 19.2678 14.8148 19.1471 14.8903 19.0142C14.9657 18.8814 15.0046 18.7389 15.0046 18.5951C15.0046 18.4513 14.9657 18.3089 14.8903 18.176C14.8148 18.0432 14.7041 17.9224 14.5647 17.8208L5.12368 10.9389H40.5027C40.9005 10.9389 41.282 10.8236 41.5633 10.6185C41.8446 10.4134 42.0027 10.1352 42.0027 9.84513Z" fill="black"/>
</svg>
