<svg width="360" height="380" viewBox="0 0 360 380" fill="none" xmlns="http://www.w3.org/2000/svg">
<rect width="360" height="380" fill="#8FC3D2"/>
<g clip-path="url(#clip0_20_2)">
<path d="M318.5 48.75C321.484 48.75 324.345 47.5647 326.455 45.455C328.565 43.3452 329.75 40.4837 329.75 37.5C329.75 34.5163 328.565 31.6548 326.455 29.545C324.345 27.4353 321.484 26.25 318.5 26.25C315.516 26.25 312.655 27.4353 310.545 29.545C308.435 31.6548 307.25 34.5163 307.25 37.5C307.25 40.4837 308.435 43.3452 310.545 45.455C312.655 47.5647 315.516 48.75 318.5 48.75ZM318.5 15C318.873 15 319.231 15.1482 319.494 15.4119C319.758 15.6756 319.906 16.0333 319.906 16.4062V22.0312C319.906 22.4042 319.758 22.7619 319.494 23.0256C319.231 23.2893 318.873 23.4375 318.5 23.4375C318.127 23.4375 317.769 23.2893 317.506 23.0256C317.242 22.7619 317.094 22.4042 317.094 22.0312V16.4062C317.094 16.0333 317.242 15.6756 317.506 15.4119C317.769 15.1482 318.127 15 318.5 15ZM318.5 51.5625C318.873 51.5625 319.231 51.7107 319.494 51.9744C319.758 52.2381 319.906 52.5958 319.906 52.9688V58.5938C319.906 58.9667 319.758 59.3244 319.494 59.5881C319.231 59.8518 318.873 60 318.5 60C318.127 60 317.769 59.8518 317.506 59.5881C317.242 59.3244 317.094 58.9667 317.094 58.5938V52.9688C317.094 52.5958 317.242 52.2381 317.506 51.9744C317.769 51.7107 318.127 51.5625 318.5 51.5625ZM341 37.5C341 37.873 340.852 38.2306 340.588 38.4944C340.324 38.7581 339.967 38.9062 339.594 38.9062H333.969C333.596 38.9062 333.238 38.7581 332.974 38.4944C332.711 38.2306 332.562 37.873 332.562 37.5C332.562 37.127 332.711 36.7694 332.974 36.5056C333.238 36.2419 333.596 36.0938 333.969 36.0938H339.594C339.967 36.0938 340.324 36.2419 340.588 36.5056C340.852 36.7694 341 37.127 341 37.5ZM304.438 37.5C304.438 37.873 304.289 38.2306 304.026 38.4944C303.762 38.7581 303.404 38.9062 303.031 38.9062H297.406C297.033 38.9062 296.676 38.7581 296.412 38.4944C296.148 38.2306 296 37.873 296 37.5C296 37.127 296.148 36.7694 296.412 36.5056C296.676 36.2419 297.033 36.0938 297.406 36.0938H303.031C303.404 36.0938 303.762 36.2419 304.026 36.5056C304.289 36.7694 304.438 37.127 304.438 37.5ZM334.41 21.5897C334.674 21.8534 334.822 22.211 334.822 22.5839C334.822 22.9568 334.674 23.3144 334.41 23.5781L330.433 27.5578C330.303 27.6884 330.148 27.7919 329.977 27.8625C329.806 27.9331 329.623 27.9693 329.438 27.9692C329.065 27.969 328.707 27.8205 328.444 27.5564C328.313 27.4257 328.209 27.2705 328.139 27.0997C328.068 26.929 328.032 26.746 328.032 26.5612C328.032 26.188 328.181 25.8302 328.445 25.5666L332.422 21.5897C332.686 21.3261 333.043 21.178 333.416 21.178C333.789 21.178 334.147 21.3261 334.41 21.5897ZM308.555 47.445C308.819 47.7087 308.967 48.0663 308.967 48.4392C308.967 48.8121 308.819 49.1697 308.555 49.4334L304.578 53.4103C304.313 53.6665 303.958 53.8082 303.589 53.805C303.22 53.8018 302.868 53.6539 302.607 53.3932C302.346 53.1325 302.198 52.7797 302.195 52.411C302.192 52.0423 302.334 51.6871 302.59 51.4219L306.567 47.445C306.83 47.1814 307.188 47.0333 307.561 47.0333C307.934 47.0333 308.291 47.1814 308.555 47.445ZM334.41 53.4103C334.147 53.6739 333.789 53.822 333.416 53.822C333.043 53.822 332.686 53.6739 332.422 53.4103L328.445 49.4334C328.189 49.1682 328.047 48.813 328.05 48.4443C328.054 48.0756 328.201 47.7229 328.462 47.4621C328.723 47.2014 329.076 47.0535 329.444 47.0503C329.813 47.0471 330.168 47.1888 330.433 47.445L334.41 51.4219C334.674 51.6856 334.822 52.0432 334.822 52.4161C334.822 52.789 334.674 53.1466 334.41 53.4103ZM308.555 27.5578C308.291 27.8214 307.934 27.9695 307.561 27.9695C307.188 27.9695 306.83 27.8214 306.567 27.5578L302.59 23.5781C302.455 23.4484 302.348 23.2932 302.275 23.1217C302.201 22.9501 302.162 22.7656 302.16 22.5788C302.159 22.3921 302.194 22.207 302.265 22.0341C302.336 21.8613 302.44 21.7043 302.572 21.5723C302.704 21.4402 302.861 21.3358 303.034 21.2651C303.207 21.1944 303.392 21.1588 303.579 21.1604C303.766 21.1621 303.95 21.2008 304.122 21.2745C304.293 21.3482 304.448 21.4554 304.578 21.5897L308.555 25.5666C308.686 25.6972 308.79 25.8524 308.861 26.0232C308.932 26.1941 308.968 26.3772 308.968 26.5622C308.968 26.7472 308.932 26.9303 308.861 27.1012C308.79 27.272 308.686 27.4272 308.555 27.5578Z" fill="#EFE812"/>
</g>
<g clip-path="url(#clip1_20_2)">
<path d="M155.185 196.756C153.199 186.812 148.063 177.758 140.528 170.921C132.992 164.084 123.453 159.82 113.304 158.755C103.155 157.689 92.929 159.877 84.1212 164.998C75.3134 170.119 68.3858 177.906 64.3511 187.218C59.8265 186.701 55.2431 187.106 50.8816 188.409C46.52 189.712 42.4721 191.886 38.9856 194.797C35.4991 197.709 32.6475 201.297 30.6053 205.341C28.563 209.385 27.3732 213.801 27.1086 218.318C26.844 222.836 27.5103 227.359 29.0665 231.611C30.6227 235.864 33.0363 239.756 36.1593 243.049C39.2823 246.343 43.0491 248.969 47.2291 250.766C51.409 252.562 55.9142 253.493 60.4687 253.5H151.312C158.591 253.508 165.6 250.768 170.92 245.834C176.241 240.9 179.475 234.142 179.967 226.928C180.459 219.714 178.173 212.584 173.572 206.982C168.971 201.38 162.398 197.724 155.185 196.756Z" fill="white" fill-opacity="0.5"/>
</g>
<g clip-path="url(#clip2_20_2)">
<path d="M321.185 195.756C319.2 185.812 314.063 176.758 306.528 169.921C298.992 163.084 289.453 158.82 279.304 157.755C269.155 156.689 258.929 158.877 250.121 163.998C241.313 169.119 234.386 176.906 230.351 186.218C225.827 185.701 221.243 186.106 216.882 187.409C212.52 188.712 208.472 190.886 204.986 193.797C201.499 196.709 198.648 200.297 196.605 204.341C194.563 208.385 193.373 212.801 193.109 217.318C192.844 221.836 193.51 226.359 195.067 230.611C196.623 234.864 199.036 238.756 202.159 242.049C205.282 245.343 209.049 247.969 213.229 249.766C217.409 251.562 221.914 252.493 226.469 252.5H317.313C324.591 252.508 331.6 249.768 336.92 244.834C342.241 239.9 345.475 233.142 345.967 225.928C346.459 218.714 344.173 211.584 339.572 205.982C334.971 200.38 328.398 196.724 321.185 195.756Z" fill="white" fill-opacity="0.5"/>
</g>
<path d="M241.133 213.265C239.147 203.32 234.011 194.267 226.476 187.43C218.94 180.592 209.401 176.329 199.252 175.263C189.103 174.198 178.877 176.385 170.069 181.507C161.261 186.628 154.334 194.414 150.299 203.727C145.774 203.209 141.191 203.614 136.829 204.917C132.468 206.221 128.42 208.394 124.934 211.306C121.447 214.217 118.595 217.805 116.553 221.85C114.511 225.894 113.321 230.31 113.057 234.827C112.792 239.344 113.458 243.867 115.014 248.12C116.571 252.372 118.984 256.264 122.107 259.558C125.23 262.851 128.997 265.477 133.177 267.274C137.357 269.071 141.862 270.002 146.417 270.009H237.26C244.538 270.017 251.548 267.277 256.868 262.343C262.189 257.409 265.423 250.651 265.915 243.437C266.407 236.223 264.121 229.092 259.52 223.49C254.919 217.888 248.346 214.233 241.133 213.265Z" fill="url(#paint0_linear_20_2)"/>
<defs>
<linearGradient id="paint0_linear_20_2" x1="189.49" y1="175" x2="189.49" y2="270.009" gradientUnits="userSpaceOnUse">
<stop stop-color="#A8EFFF"/>
<stop offset="1" stop-color="#999999"/>
</linearGradient>
<clipPath id="clip0_20_2">
<rect width="45" height="45" fill="white" transform="translate(296 15)"/>
</clipPath>
<clipPath id="clip1_20_2">
<rect width="153" height="152" fill="white" transform="translate(27 130)"/>
</clipPath>
<clipPath id="clip2_20_2">
<rect width="153" height="152" fill="white" transform="translate(193 129)"/>
</clipPath>
</defs>
</svg>
