<svg width="360" height="380" viewBox="0 0 360 380" fill="none" xmlns="http://www.w3.org/2000/svg">
<rect width="360" height="380" fill="#1A1945" fill-opacity="0.87"/>
<path d="M319.875 11.7814C320.149 12.1154 320.317 12.5236 320.357 12.9536C320.397 13.3836 320.307 13.8157 320.1 14.1945C318.473 17.1796 317.624 20.5262 317.631 23.9258C317.631 35.2349 326.85 44.3924 338.212 44.3924C339.697 44.3905 341.135 44.2405 342.524 43.9424C342.949 43.8514 343.391 43.8872 343.796 44.0451C344.201 44.2031 344.551 44.4764 344.802 44.8311C345.068 45.2003 345.204 45.6472 345.188 46.1018C345.172 46.5564 345.006 46.9928 344.715 47.3427C342.509 50.0522 339.726 52.2353 336.569 53.7329C333.413 55.2305 329.961 56.0049 326.467 55.9996C313.502 55.9996 303 45.5539 303 32.6839C303 22.9977 308.946 14.6895 317.411 11.1683C317.833 10.9891 318.301 10.9521 318.746 11.0627C319.19 11.1733 319.587 11.4256 319.875 11.7814ZM316.663 14.6867C313.408 16.4331 310.687 19.0285 308.789 22.1974C306.891 25.3662 305.886 28.9901 305.883 32.6839C305.883 43.9902 315.105 53.1477 326.467 53.1477C329.188 53.1518 331.883 52.6165 334.396 51.5728C336.908 50.5291 339.189 48.9977 341.107 47.0671C340.158 47.1852 339.193 47.2442 338.212 47.2442C325.247 47.2442 314.748 36.7986 314.748 23.9286C314.748 20.6464 315.428 17.5217 316.663 14.6867Z" fill="white"/>
<g clip-path="url(#clip0_23_2)">
<path d="M144.185 176.756C142.2 166.812 137.063 157.758 129.528 150.921C121.992 144.084 112.453 139.82 102.304 138.755C92.155 137.689 81.929 139.877 73.1213 144.998C64.3135 150.119 57.3858 157.906 53.3511 167.218C48.8265 166.701 44.2431 167.106 39.8816 168.409C35.52 169.712 31.4721 171.886 27.9856 174.797C24.4992 177.709 21.6475 181.297 19.6053 185.341C17.5631 189.385 16.3732 193.801 16.1086 198.318C15.8441 202.836 16.5103 207.359 18.0665 211.611C19.6228 215.864 22.0363 219.756 25.1593 223.049C28.2823 226.343 32.0491 228.969 36.2291 230.766C40.4091 232.562 44.9142 233.493 49.4688 233.5H140.313C147.591 233.508 154.6 230.768 159.92 225.834C165.241 220.9 168.475 214.142 168.967 206.928C169.459 199.714 167.173 192.584 162.572 186.982C157.971 181.38 151.398 177.724 144.185 176.756Z" fill="url(#paint0_linear_23_2)"/>
</g>
<g clip-path="url(#clip1_23_2)">
<path d="M320.185 182.756C318.2 172.812 313.063 163.758 305.528 156.921C297.992 150.084 288.453 145.82 278.304 144.755C268.155 143.689 257.929 145.877 249.121 150.998C240.313 156.119 233.386 163.906 229.351 173.218C224.827 172.701 220.243 173.106 215.882 174.409C211.52 175.712 207.472 177.886 203.986 180.797C200.499 183.709 197.648 187.297 195.605 191.341C193.563 195.385 192.373 199.801 192.109 204.318C191.844 208.836 192.51 213.359 194.067 217.611C195.623 221.864 198.036 225.756 201.159 229.049C204.282 232.343 208.049 234.969 212.229 236.766C216.409 238.562 220.914 239.493 225.469 239.5H316.313C323.591 239.508 330.6 236.768 335.92 231.834C341.241 226.9 344.475 220.142 344.967 212.928C345.459 205.714 343.173 198.584 338.572 192.982C333.971 187.38 327.398 183.724 320.185 182.756Z" fill="url(#paint1_linear_23_2)"/>
<path d="M320.185 182.756C318.2 172.812 313.063 163.758 305.528 156.921C297.992 150.084 288.453 145.82 278.304 144.755C268.155 143.689 257.929 145.877 249.121 150.998C240.313 156.119 233.386 163.906 229.351 173.218C224.827 172.701 220.243 173.106 215.882 174.409C211.52 175.712 207.472 177.886 203.986 180.797C200.499 183.709 197.648 187.297 195.605 191.341C193.563 195.385 192.373 199.801 192.109 204.318C191.844 208.836 192.51 213.359 194.067 217.611C195.623 221.864 198.036 225.756 201.159 229.049C204.282 232.343 208.049 234.969 212.229 236.766C216.409 238.562 220.914 239.493 225.469 239.5H316.313C323.591 239.508 330.6 236.768 335.92 231.834C341.241 226.9 344.475 220.142 344.967 212.928C345.459 205.714 343.173 198.584 338.572 192.982C333.971 187.38 327.398 183.724 320.185 182.756Z" fill="url(#paint2_linear_23_2)"/>
</g>
<g clip-path="url(#clip2_23_2)">
<path d="M235.185 200.756C233.2 190.812 228.063 181.758 220.528 174.921C212.992 168.084 203.453 163.82 193.304 162.755C183.155 161.689 172.929 163.877 164.121 168.998C155.313 174.119 148.386 181.906 144.351 191.218C139.827 190.701 135.243 191.106 130.882 192.409C126.52 193.712 122.472 195.886 118.986 198.797C115.499 201.709 112.648 205.297 110.605 209.341C108.563 213.385 107.373 217.801 107.109 222.318C106.844 226.836 107.51 231.359 109.067 235.611C110.623 239.864 113.036 243.756 116.159 247.049C119.282 250.343 123.049 252.969 127.229 254.766C131.409 256.562 135.914 257.493 140.469 257.5H231.313C238.591 257.508 245.6 254.768 250.92 249.834C256.241 244.9 259.475 238.142 259.967 230.928C260.459 223.714 258.173 216.584 253.572 210.982C248.971 205.38 242.398 201.724 235.185 200.756Z" fill="url(#paint3_linear_23_2)"/>
<path d="M235.185 200.756C233.2 190.812 228.063 181.758 220.528 174.921C212.992 168.084 203.453 163.82 193.304 162.755C183.155 161.689 172.929 163.877 164.121 168.998C155.313 174.119 148.386 181.906 144.351 191.218C139.827 190.701 135.243 191.106 130.882 192.409C126.52 193.712 122.472 195.886 118.986 198.797C115.499 201.709 112.648 205.297 110.605 209.341C108.563 213.385 107.373 217.801 107.109 222.318C106.844 226.836 107.51 231.359 109.067 235.611C110.623 239.864 113.036 243.756 116.159 247.049C119.282 250.343 123.049 252.969 127.229 254.766C131.409 256.562 135.914 257.493 140.469 257.5H231.313C238.591 257.508 245.6 254.768 250.92 249.834C256.241 244.9 259.475 238.142 259.967 230.928C260.459 223.714 258.173 216.584 253.572 210.982C248.971 205.38 242.398 201.724 235.185 200.756Z" fill="url(#paint4_linear_23_2)"/>
</g>
<defs>
<linearGradient id="paint0_linear_23_2" x1="92.5425" y1="138.491" x2="92.5425" y2="233.5" gradientUnits="userSpaceOnUse">
<stop stop-color="#9F9F9F"/>
<stop offset="1" stop-color="#171616"/>
</linearGradient>
<linearGradient id="paint1_linear_23_2" x1="268.542" y1="144.491" x2="268.542" y2="239.5" gradientUnits="userSpaceOnUse">
<stop stop-color="#9F9F9F"/>
<stop offset="0.0001" stop-color="#999999"/>
<stop offset="0.668269" stop-color="#393939"/>
</linearGradient>
<linearGradient id="paint2_linear_23_2" x1="268.542" y1="144.491" x2="268.542" y2="239.5" gradientUnits="userSpaceOnUse">
<stop stop-color="#9F9F9F"/>
<stop offset="0.0001" stop-color="#999999"/>
<stop offset="0.668269" stop-color="#393939"/>
</linearGradient>
<linearGradient id="paint3_linear_23_2" x1="183.542" y1="162.491" x2="183.542" y2="257.5" gradientUnits="userSpaceOnUse">
<stop stop-color="#3C3A82"/>
<stop offset="0.0817308" stop-color="#3A3870"/>
<stop offset="0.466346" stop-color="#716EB9"/>
<stop offset="0.673077" stop-color="#53519A"/>
<stop offset="0.841346" stop-color="#434276"/>
<stop offset="0.9997" stop-color="#1C1B20"/>
<stop offset="0.9998" stop-color="#29283C"/>
<stop offset="0.9999" stop-color="#353372"/>
</linearGradient>
<linearGradient id="paint4_linear_23_2" x1="183.542" y1="162.491" x2="183.542" y2="257.5" gradientUnits="userSpaceOnUse">
<stop stop-color="#3C3A82"/>
<stop offset="0.0817308" stop-color="#3A3870"/>
<stop offset="0.466346" stop-color="#716EB9"/>
<stop offset="0.673077" stop-color="#53519A"/>
<stop offset="0.841346" stop-color="#434276"/>
<stop offset="0.9997" stop-color="#1C1B20"/>
<stop offset="0.9998" stop-color="#29283C"/>
<stop offset="0.9999" stop-color="#353372"/>
</linearGradient>
<clipPath id="clip0_23_2">
<rect width="153" height="152" fill="white" transform="translate(16 110)"/>
</clipPath>
<clipPath id="clip1_23_2">
<rect width="153" height="152" fill="white" transform="translate(192 116)"/>
</clipPath>
<clipPath id="clip2_23_2">
<rect width="153" height="152" fill="white" transform="translate(107 134)"/>
</clipPath>
</defs>
</svg>
