<svg width="80" height="78" viewBox="0 0 80 78" fill="none" xmlns="http://www.w3.org/2000/svg">
<rect width="80" height="78" rx="30" fill="#D9D9D9"/>
<path d="M38.6591 52.9079C37.4915 52.8909 36.3409 52.6778 35.2074 52.2687C34.0824 51.8596 33.0597 51.1778 32.1392 50.2233C31.2188 49.2687 30.4815 47.9861 29.9276 46.3753C29.3821 44.7645 29.1094 42.7531 29.1094 40.3412C29.1094 38.0571 29.3352 36.0287 29.7869 34.256C30.2472 32.4832 30.9077 30.9875 31.7685 29.7687C32.6293 28.5415 33.669 27.6082 34.8878 26.969C36.1065 26.3298 37.4744 26.0102 38.9915 26.0102C40.5511 26.0102 41.9361 26.317 43.1463 26.9307C44.3565 27.5443 45.3366 28.3923 46.0866 29.4747C46.8452 30.5571 47.3267 31.7886 47.5312 33.1693H43.6321C43.3679 32.0784 42.8438 31.1878 42.0597 30.4974C41.2756 29.8071 40.2528 29.4619 38.9915 29.4619C37.0739 29.4619 35.5781 30.2971 34.5043 31.9676C33.4389 33.6381 32.902 35.9605 32.8935 38.9349H33.0852C33.5369 38.1935 34.0909 37.5628 34.7472 37.0429C35.4119 36.5145 36.1534 36.1096 36.9716 35.8284C37.7983 35.5386 38.6676 35.3937 39.5795 35.3937C41.0966 35.3937 42.4688 35.7645 43.696 36.506C44.9318 37.2389 45.9162 38.2531 46.6491 39.5486C47.3821 40.844 47.7486 42.327 47.7486 43.9974C47.7486 45.6679 47.3693 47.1807 46.6108 48.5358C45.8608 49.8909 44.804 50.9648 43.4403 51.7574C42.0767 52.5415 40.483 52.925 38.6591 52.9079ZM38.6463 49.5841C39.652 49.5841 40.5511 49.3369 41.3438 48.8426C42.1364 48.3483 42.7628 47.6835 43.223 46.8483C43.6832 46.0131 43.9134 45.0798 43.9134 44.0486C43.9134 43.0429 43.6875 42.1267 43.2358 41.3C42.7926 40.4733 42.179 39.817 41.3949 39.3312C40.6193 38.8454 39.733 38.6025 38.7358 38.6025C37.9773 38.6025 37.2741 38.7474 36.6264 39.0372C35.9872 39.327 35.4247 39.7275 34.9389 40.2389C34.4531 40.7503 34.0696 41.3383 33.7884 42.0031C33.5156 42.6594 33.3793 43.354 33.3793 44.0869C33.3793 45.067 33.6051 45.9747 34.0568 46.8099C34.517 47.6452 35.1435 48.3185 35.9361 48.8298C36.7372 49.3327 37.6406 49.5841 38.6463 49.5841Z" fill="black" fill-opacity="0.8"/>
</svg>
