<svg width="121" height="38" viewBox="0 0 121 38" fill="none" xmlns="http://www.w3.org/2000/svg">
<rect y="0.92131" width="121" height="36.8787" rx="18.4393" fill="#D9D9D9"/>
<rect x="60" y="0.92131" width="61" height="36.8787" rx="18.4393" fill="#AE86C9"/>
<g clip-path="url(#clip0_9_22)">
<path d="M88.125 5.44521C88.338 5.67451 88.4685 5.95479 88.4996 6.25004C88.5308 6.54529 88.4613 6.84203 88.3 7.10214C87.0346 9.15176 86.3741 11.4496 86.3794 13.7839C86.3794 21.5491 93.55 27.8369 102.388 27.8369C103.543 27.8356 104.66 27.7326 105.741 27.5279C106.072 27.4655 106.416 27.49 106.731 27.5985C107.045 27.7069 107.317 27.8946 107.513 28.1381C107.719 28.3916 107.825 28.6985 107.813 29.0106C107.8 29.3227 107.671 29.6224 107.445 29.8626C105.729 31.7231 103.565 33.2221 101.11 34.2504C98.6543 35.2787 95.97 35.8104 93.2525 35.8067C83.1681 35.8067 75 28.6344 75 19.7975C75 13.1466 79.6244 7.44202 86.2088 5.02422C86.5366 4.90121 86.9009 4.87575 87.2467 4.9517C87.5924 5.02766 87.9007 5.20088 88.125 5.44521ZM85.6269 7.44009C83.0952 8.63916 80.9788 10.4213 79.5025 12.5971C78.0261 14.7729 77.245 17.2612 77.2422 19.7975C77.2422 27.5607 84.415 33.8485 93.2525 33.8485C95.3687 33.8513 97.4646 33.4838 99.4189 32.7672C101.373 32.0505 103.147 30.999 104.638 29.6734C103.901 29.7545 103.15 29.7951 102.388 29.7951C92.3031 29.7951 84.1372 22.6228 84.1372 13.7858C84.1372 11.5322 84.6666 9.38669 85.6269 7.44009Z" fill="black"/>
</g>
<g clip-path="url(#clip1_9_22)">
<path d="M34.5 26.1508C32.7595 26.1508 31.0903 25.5404 29.8596 24.454C28.6289 23.3675 27.9375 21.8939 27.9375 20.3574C27.9375 18.8209 28.6289 17.3473 29.8596 16.2608C31.0903 15.1743 32.7595 14.5639 34.5 14.5639C36.2405 14.5639 37.9097 15.1743 39.1404 16.2608C40.3711 17.3473 41.0625 18.8209 41.0625 20.3574C41.0625 21.8939 40.3711 23.3675 39.1404 24.454C37.9097 25.5404 36.2405 26.1508 34.5 26.1508ZM34.5 28.082C36.8206 28.082 39.0462 27.2681 40.6872 25.8195C42.3281 24.3708 43.25 22.4061 43.25 20.3574C43.25 18.3087 42.3281 16.3439 40.6872 14.8953C39.0462 13.4466 36.8206 12.6328 34.5 12.6328C32.1794 12.6328 29.9538 13.4466 28.3128 14.8953C26.6719 16.3439 25.75 18.3087 25.75 20.3574C25.75 22.4061 26.6719 24.3708 28.3128 25.8195C29.9538 27.2681 32.1794 28.082 34.5 28.082ZM34.5 4.9082C34.7901 4.9082 35.0683 5.00993 35.2734 5.19101C35.4785 5.37209 35.5938 5.61768 35.5938 5.87377V9.73606C35.5938 9.99215 35.4785 10.2377 35.2734 10.4188C35.0683 10.5999 34.7901 10.7016 34.5 10.7016C34.2099 10.7016 33.9317 10.5999 33.7266 10.4188C33.5215 10.2377 33.4062 9.99215 33.4062 9.73606V5.87377C33.4062 5.61768 33.5215 5.37209 33.7266 5.19101C33.9317 5.00993 34.2099 4.9082 34.5 4.9082ZM34.5 30.0131C34.7901 30.0131 35.0683 30.1148 35.2734 30.2959C35.4785 30.477 35.5938 30.7226 35.5938 30.9787V34.841C35.5938 35.0971 35.4785 35.3427 35.2734 35.5237C35.0683 35.7048 34.7901 35.8066 34.5 35.8066C34.2099 35.8066 33.9317 35.7048 33.7266 35.5237C33.5215 35.3427 33.4062 35.0971 33.4062 34.841V30.9787C33.4062 30.7226 33.5215 30.477 33.7266 30.2959C33.9317 30.1148 34.2099 30.0131 34.5 30.0131ZM52 20.3574C52 20.6135 51.8848 20.8591 51.6796 21.0401C51.4745 21.2212 51.1963 21.3229 50.9062 21.3229H46.5312C46.2412 21.3229 45.963 21.2212 45.7579 21.0401C45.5527 20.8591 45.4375 20.6135 45.4375 20.3574C45.4375 20.1013 45.5527 19.8557 45.7579 19.6746C45.963 19.4935 46.2412 19.3918 46.5312 19.3918H50.9062C51.1963 19.3918 51.4745 19.4935 51.6796 19.6746C51.8848 19.8557 52 20.1013 52 20.3574ZM23.5625 20.3574C23.5625 20.6135 23.4473 20.8591 23.2421 21.0401C23.037 21.2212 22.7588 21.3229 22.4688 21.3229H18.0938C17.8037 21.3229 17.5255 21.2212 17.3204 21.0401C17.1152 20.8591 17 20.6135 17 20.3574C17 20.1013 17.1152 19.8557 17.3204 19.6746C17.5255 19.4935 17.8037 19.3918 18.0938 19.3918H22.4688C22.7588 19.3918 23.037 19.4935 23.2421 19.6746C23.4473 19.8557 23.5625 20.1013 23.5625 20.3574ZM46.8747 9.43287C47.0797 9.61395 47.1949 9.8595 47.1949 10.1155C47.1949 10.3716 47.0797 10.6171 46.8747 10.7982L43.7816 13.5308C43.6799 13.6204 43.5592 13.6915 43.4264 13.74C43.2935 13.7884 43.1512 13.8133 43.0075 13.8133C42.7173 13.8131 42.439 13.7111 42.2339 13.5298C42.1324 13.44 42.0518 13.3335 41.9969 13.2162C41.942 13.099 41.9138 12.9733 41.9139 12.8465C41.9141 12.5902 42.0296 12.3446 42.235 12.1635L45.3281 9.43287C45.5332 9.25186 45.8114 9.15017 46.1014 9.15017C46.3914 9.15017 46.6696 9.25186 46.8747 9.43287ZM26.765 27.1859C26.97 27.367 27.0852 27.6125 27.0852 27.8686C27.0852 28.1246 26.97 28.3702 26.765 28.5512L23.6719 31.2819C23.4656 31.4578 23.1893 31.5551 22.9025 31.5529C22.6158 31.5507 22.3414 31.4491 22.1386 31.2701C21.9358 31.0911 21.8208 30.8489 21.8183 30.5957C21.8158 30.3426 21.9261 30.0987 22.1253 29.9166L25.2184 27.1859C25.4235 27.0049 25.7017 26.9032 25.9917 26.9032C26.2817 26.9032 26.5599 27.0049 26.765 27.1859ZM46.8747 31.2819C46.6696 31.4629 46.3914 31.5646 46.1014 31.5646C45.8114 31.5646 45.5332 31.4629 45.3281 31.2819L42.235 28.5512C42.0358 28.3691 41.9255 28.1252 41.928 27.872C41.9305 27.6189 42.0455 27.3767 42.2483 27.1977C42.4511 27.0187 42.7254 26.9171 43.0122 26.9149C43.299 26.9127 43.5753 27.01 43.7816 27.1859L46.8747 29.9166C47.0797 30.0976 47.1949 30.3432 47.1949 30.5992C47.1949 30.8553 47.0797 31.1008 46.8747 31.2819ZM26.765 13.5308C26.5599 13.7118 26.2817 13.8135 25.9917 13.8135C25.7017 13.8135 25.4235 13.7118 25.2184 13.5308L22.1253 10.7982C22.0208 10.7091 21.9375 10.6026 21.8802 10.4848C21.8229 10.367 21.7927 10.2403 21.7914 10.1121C21.7902 9.98385 21.8179 9.85671 21.8729 9.73804C21.9278 9.61937 22.0091 9.51157 22.1118 9.42091C22.2145 9.33025 22.3366 9.25855 22.471 9.21C22.6054 9.16145 22.7494 9.13702 22.8947 9.13813C23.0399 9.13925 23.1834 9.16588 23.3168 9.21649C23.4503 9.26709 23.571 9.34065 23.6719 9.43287L26.765 12.1635C26.8669 12.2532 26.9477 12.3598 27.0028 12.4771C27.0579 12.5944 27.0863 12.7201 27.0863 12.8471C27.0863 12.9741 27.0579 13.0999 27.0028 13.2172C26.9477 13.3345 26.8669 13.4411 26.765 13.5308Z" fill="black"/>
</g>
<defs>
<clipPath id="clip0_9_22">
<rect width="35" height="30.8984" fill="white" transform="translate(75 4.9082)"/>
</clipPath>
<clipPath id="clip1_9_22">
<rect width="35" height="30.8984" fill="white" transform="translate(17 4.9082)"/>
</clipPath>
</defs>
</svg>
