<svg width="80" height="78" viewBox="0 0 80 78" fill="none" xmlns="http://www.w3.org/2000/svg">
<rect width="80" height="78" rx="30" fill="#D9D9D9"/>
<path d="M39.3651 52.9079C37.5327 52.9079 35.9134 52.5926 34.5071 51.9619C33.1094 51.3312 32.0142 50.4619 31.2216 49.354C30.429 48.246 30.0369 46.9846 30.0455 45.5699C30.0369 44.4619 30.2628 43.4435 30.723 42.5145C31.1918 41.577 31.8267 40.7971 32.6278 40.175C33.429 39.5443 34.3239 39.1437 35.3125 38.9733V38.8199C34.0085 38.5045 32.9645 37.8057 32.1804 36.7233C31.3963 35.6409 31.0085 34.3966 31.017 32.9903C31.0085 31.6523 31.3622 30.4591 32.0781 29.4108C32.8026 28.354 33.7955 27.523 35.0568 26.9179C36.3182 26.3128 37.7543 26.0102 39.3651 26.0102C40.9588 26.0102 42.3821 26.317 43.6349 26.9307C44.8963 27.5358 45.8892 28.3667 46.6136 29.4236C47.3381 30.4719 47.7045 31.6608 47.7131 32.9903C47.7045 34.3966 47.304 35.6409 46.5114 36.7233C45.7188 37.8057 44.6875 38.5045 43.4176 38.8199V38.9733C44.3977 39.1437 45.2798 39.5443 46.0639 40.175C46.8565 40.7971 47.4872 41.577 47.956 42.5145C48.4332 43.4435 48.6761 44.4619 48.6847 45.5699C48.6761 46.9846 48.2756 48.246 47.483 49.354C46.6903 50.4619 45.5909 51.3312 44.1847 51.9619C42.7869 52.5926 41.1804 52.9079 39.3651 52.9079ZM39.3651 49.6736C40.4474 49.6736 41.3849 49.4946 42.1776 49.1366C42.9702 48.7702 43.5838 48.2631 44.0185 47.6153C44.4531 46.9591 44.6747 46.192 44.6832 45.3142C44.6747 44.4023 44.4361 43.5969 43.9673 42.898C43.5071 42.1991 42.8807 41.6494 42.0881 41.2489C41.2955 40.8483 40.3878 40.648 39.3651 40.648C38.3338 40.648 37.4176 40.8483 36.6165 41.2489C35.8153 41.6494 35.1847 42.1991 34.7244 42.898C34.2642 43.5969 34.0384 44.4023 34.0469 45.3142C34.0384 46.192 34.2472 46.9591 34.6733 47.6153C35.108 48.2631 35.7259 48.7702 36.527 49.1366C37.3281 49.4946 38.2741 49.6736 39.3651 49.6736ZM39.3651 37.4903C40.2344 37.4903 41.0057 37.3156 41.679 36.9662C42.3523 36.6167 42.8807 36.131 43.2642 35.5088C43.6563 34.8866 43.8565 34.1579 43.8651 33.3227C43.8565 32.5045 43.6605 31.7886 43.277 31.175C42.902 30.5614 42.3778 30.0883 41.7045 29.756C41.0313 29.415 40.2514 29.2446 39.3651 29.2446C38.4616 29.2446 37.669 29.415 36.9872 29.756C36.3139 30.0883 35.7898 30.5614 35.4148 31.175C35.0398 31.7886 34.8565 32.5045 34.8651 33.3227C34.8565 34.1579 35.044 34.8866 35.4276 35.5088C35.8111 36.131 36.3395 36.6167 37.0128 36.9662C37.6946 37.3156 38.4787 37.4903 39.3651 37.4903Z" fill="black" fill-opacity="0.8"/>
</svg>
