<svg width="80" height="78" viewBox="0 0 80 78" fill="none" xmlns="http://www.w3.org/2000/svg">
<rect width="80" height="78" rx="30" fill="#D9D9D9"/>
<path d="M38.2244 26.0102C39.392 26.0187 40.5426 26.2318 41.6761 26.6494C42.8097 27.067 43.8324 27.7489 44.7443 28.6949C45.6648 29.6409 46.3977 30.9193 46.9432 32.5301C47.4972 34.1324 47.7784 36.1267 47.7869 38.5131C47.7869 40.8057 47.5568 42.8469 47.0966 44.6366C46.6364 46.4179 45.9759 47.9221 45.1151 49.1494C44.2628 50.3767 43.2273 51.3099 42.0085 51.9491C40.7898 52.5883 39.4176 52.9079 37.892 52.9079C36.3324 52.9079 34.9474 52.6011 33.7372 51.9875C32.527 51.3739 31.5426 50.5258 30.7841 49.4435C30.0256 48.3525 29.5526 47.0997 29.3651 45.6849H33.2642C33.5199 46.8099 34.0398 47.7219 34.8239 48.4207C35.6165 49.1111 36.6392 49.4562 37.892 49.4562C39.8097 49.4562 41.3054 48.621 42.3793 46.9506C43.4531 45.2716 43.9943 42.9278 44.0028 39.9193H43.7983C43.3551 40.6523 42.8011 41.2829 42.1364 41.8114C41.4801 42.3398 40.7429 42.7489 39.9247 43.0386C39.1065 43.3284 38.233 43.4733 37.304 43.4733C35.7955 43.4733 34.4233 43.1025 33.1875 42.3611C31.9517 41.6196 30.9673 40.6011 30.2344 39.3057C29.5014 38.0102 29.1349 36.5315 29.1349 34.8696C29.1349 33.2162 29.5099 31.7162 30.2599 30.3696C31.0185 29.023 32.0753 27.9577 33.4304 27.1736C34.794 26.381 36.392 25.9932 38.2244 26.0102ZM38.2372 29.3341C37.2401 29.3341 36.3409 29.5812 35.5398 30.0756C34.7472 30.5614 34.1207 31.2219 33.6605 32.0571C33.2003 32.8838 32.9702 33.8042 32.9702 34.8185C32.9702 35.8327 33.1918 36.7531 33.6349 37.5798C34.0866 38.398 34.7003 39.05 35.4759 39.5358C36.2599 40.0131 37.1548 40.2517 38.1605 40.2517C38.9105 40.2517 39.6094 40.1068 40.2571 39.817C40.9048 39.5273 41.4716 39.1267 41.9574 38.6153C42.4432 38.0954 42.8224 37.5074 43.0952 36.8511C43.3679 36.1949 43.5043 35.5045 43.5043 34.7801C43.5043 33.817 43.2741 32.9221 42.8139 32.0954C42.3622 31.2687 41.7401 30.604 40.9474 30.1011C40.1548 29.5898 39.2514 29.3341 38.2372 29.3341Z" fill="black" fill-opacity="0.8"/>
</svg>
