<svg width="80" height="78" viewBox="0 0 80 78" fill="none" xmlns="http://www.w3.org/2000/svg">
<rect width="80" height="78" rx="30" fill="#D9D9D9"/>
<path d="M39.6335 52.9847C37.6136 52.9762 35.8878 52.4435 34.456 51.3867C33.0241 50.3299 31.929 48.7915 31.1705 46.7716C30.4119 44.7518 30.0327 42.3185 30.0327 39.4719C30.0327 36.6339 30.4119 34.2091 31.1705 32.1978C31.9375 30.1864 33.0369 28.6523 34.4688 27.5955C35.9091 26.5387 37.6307 26.0103 39.6335 26.0103C41.6364 26.0103 43.3537 26.5429 44.7855 27.6083C46.2173 28.6651 47.3125 30.1992 48.071 32.2106C48.8381 34.2134 49.2216 36.6339 49.2216 39.4719C49.2216 42.327 48.8423 44.7645 48.0838 46.7844C47.3253 48.7958 46.2301 50.3341 44.7983 51.3995C43.3665 52.4563 41.6449 52.9847 39.6335 52.9847ZM39.6335 49.5714C41.4063 49.5714 42.7912 48.7063 43.7884 46.9762C44.794 45.2461 45.2969 42.7447 45.2969 39.4719C45.2969 37.2986 45.0668 35.462 44.6065 33.962C44.1548 32.4535 43.5028 31.3114 42.6506 30.5358C41.8068 29.7518 40.8011 29.3597 39.6335 29.3597C37.8693 29.3597 36.4844 30.229 35.4787 31.9677C34.473 33.7063 33.9659 36.2077 33.9574 39.4719C33.9574 41.6537 34.1832 43.4989 34.6349 45.0074C35.0952 46.5074 35.7472 47.6452 36.5909 48.4208C37.4347 49.1878 38.4489 49.5714 39.6335 49.5714Z" fill="black" fill-opacity="0.8"/>
</svg>
