<svg width="80" height="78" viewBox="0 0 80 78" fill="none" xmlns="http://www.w3.org/2000/svg">
<rect width="80" height="78" rx="30" fill="#D9D9D9"/>
<path d="M39.1605 52.9079C37.5582 52.9079 36.1179 52.6011 34.8395 51.9875C33.5696 51.3653 32.5554 50.5131 31.7969 49.4307C31.0384 48.3483 30.6335 47.1125 30.5824 45.7233H34.4176C34.5114 46.8483 35.0099 47.773 35.9134 48.4974C36.8168 49.2219 37.8991 49.5841 39.1605 49.5841C40.1662 49.5841 41.0568 49.354 41.8324 48.8937C42.6165 48.425 43.2301 47.7815 43.6733 46.9633C44.125 46.1452 44.3509 45.2119 44.3509 44.1636C44.3509 43.0983 44.1207 42.148 43.6605 41.3128C43.2003 40.4775 42.5653 39.8213 41.7557 39.344C40.9545 38.8667 40.0341 38.6239 38.9943 38.6153C38.2017 38.6153 37.4048 38.7517 36.6037 39.0244C35.8026 39.2971 35.1548 39.6551 34.6605 40.0983L31.0426 39.5614L32.5128 26.3682H46.9077V29.756H35.7983L34.9673 37.0812H35.1207C35.6321 36.5869 36.3097 36.1736 37.1534 35.8412C38.0057 35.5088 38.9176 35.3426 39.8892 35.3426C41.483 35.3426 42.902 35.7219 44.1463 36.4804C45.3991 37.2389 46.3835 38.2744 47.0994 39.5869C47.8239 40.8909 48.1818 42.3909 48.1733 44.0869C48.1818 45.7829 47.7983 47.2957 47.0227 48.6253C46.2557 49.9548 45.1903 51.0031 43.8267 51.7702C42.4716 52.5287 40.9162 52.9079 39.1605 52.9079Z" fill="black" fill-opacity="0.8"/>
</svg>
