<svg width="121" height="37" viewBox="0 0 121 37" fill="none" xmlns="http://www.w3.org/2000/svg">
<rect width="121" height="37" rx="18.5" fill="#461550"/>
<rect x="60" width="61" height="37" rx="18.5" fill="#D9D9D9"/>
<g clip-path="url(#clip0_20_2)">
<path d="M88.125 4.53878C88.338 4.76883 88.4685 5.05003 88.4996 5.34626C88.5308 5.64248 88.4613 5.9402 88.3 6.20116C87.0346 8.25752 86.3741 10.563 86.3794 12.9049C86.3794 20.6956 93.55 27.0041 102.388 27.0041C103.543 27.0028 104.66 26.8995 105.741 26.6941C106.072 26.6315 106.416 26.6561 106.731 26.7649C107.045 26.8737 107.317 27.062 107.513 27.3063C107.719 27.5607 107.825 27.8685 107.813 28.1817C107.8 28.4949 107.671 28.7955 107.445 29.0365C105.729 30.9031 103.565 32.407 101.11 33.4387C98.6543 34.4704 95.97 35.0038 93.2525 35.0002C83.1681 35.0002 75 27.8043 75 18.9383C75 12.2655 79.6244 6.54216 86.2087 4.11641C86.5366 3.99299 86.9009 3.96745 87.2467 4.04365C87.5924 4.11985 87.9007 4.29365 88.125 4.53878ZM85.6269 6.54022C83.0952 7.74324 80.9788 9.53123 79.5025 11.7142C78.0261 13.8972 77.245 16.3936 77.2422 18.9383C77.2422 26.727 84.415 33.0355 93.2525 33.0355C95.3687 33.0384 97.4646 32.6696 99.4189 31.9506C101.373 31.2316 103.147 30.1766 104.638 28.8467C103.901 28.928 103.15 28.9687 102.388 28.9687C92.3031 28.9687 84.1372 21.7728 84.1372 12.9068C84.1372 10.6458 84.6666 8.49322 85.6269 6.54022Z" fill="black"/>
</g>
<g clip-path="url(#clip1_20_2)">
<path d="M34.5 25.3125C32.7595 25.3125 31.0903 24.7001 29.8596 23.6101C28.6289 22.52 27.9375 21.0416 27.9375 19.5C27.9375 17.9584 28.6289 16.48 29.8596 15.3899C31.0903 14.2999 32.7595 13.6875 34.5 13.6875C36.2405 13.6875 37.9097 14.2999 39.1404 15.3899C40.3711 16.48 41.0625 17.9584 41.0625 19.5C41.0625 21.0416 40.3711 22.52 39.1404 23.6101C37.9097 24.7001 36.2405 25.3125 34.5 25.3125ZM34.5 27.25C36.8206 27.25 39.0462 26.4335 40.6872 24.9801C42.3281 23.5267 43.25 21.5554 43.25 19.5C43.25 17.4446 42.3281 15.4733 40.6872 14.0199C39.0462 12.5665 36.8206 11.75 34.5 11.75C32.1794 11.75 29.9538 12.5665 28.3128 14.0199C26.6719 15.4733 25.75 17.4446 25.75 19.5C25.75 21.5554 26.6719 23.5267 28.3128 24.9801C29.9538 26.4335 32.1794 27.25 34.5 27.25ZM34.5 4C34.7901 4 35.0683 4.10206 35.2734 4.28374C35.4785 4.46542 35.5938 4.71182 35.5938 4.96875V8.84375C35.5938 9.10068 35.4785 9.34708 35.2734 9.52876C35.0683 9.71044 34.7901 9.8125 34.5 9.8125C34.2099 9.8125 33.9317 9.71044 33.7266 9.52876C33.5215 9.34708 33.4062 9.10068 33.4062 8.84375V4.96875C33.4062 4.71182 33.5215 4.46542 33.7266 4.28374C33.9317 4.10206 34.2099 4 34.5 4ZM34.5 29.1875C34.7901 29.1875 35.0683 29.2896 35.2734 29.4712C35.4785 29.6529 35.5938 29.8993 35.5938 30.1562V34.0312C35.5938 34.2882 35.4785 34.5346 35.2734 34.7163C35.0683 34.8979 34.7901 35 34.5 35C34.2099 35 33.9317 34.8979 33.7266 34.7163C33.5215 34.5346 33.4062 34.2882 33.4062 34.0312V30.1562C33.4062 29.8993 33.5215 29.6529 33.7266 29.4712C33.9317 29.2896 34.2099 29.1875 34.5 29.1875ZM52 19.5C52 19.7569 51.8848 20.0033 51.6796 20.185C51.4745 20.3667 51.1963 20.4688 50.9062 20.4688H46.5312C46.2412 20.4688 45.963 20.3667 45.7579 20.185C45.5527 20.0033 45.4375 19.7569 45.4375 19.5C45.4375 19.2431 45.5527 18.9967 45.7579 18.815C45.963 18.6333 46.2412 18.5312 46.5312 18.5312H50.9062C51.1963 18.5312 51.4745 18.6333 51.6796 18.815C51.8848 18.9967 52 19.2431 52 19.5ZM23.5625 19.5C23.5625 19.7569 23.4473 20.0033 23.2421 20.185C23.037 20.3667 22.7588 20.4688 22.4688 20.4688H18.0938C17.8037 20.4688 17.5255 20.3667 17.3204 20.185C17.1152 20.0033 17 19.7569 17 19.5C17 19.2431 17.1152 18.9967 17.3204 18.815C17.5255 18.6333 17.8037 18.5312 18.0938 18.5312H22.4688C22.7588 18.5312 23.037 18.6333 23.2421 18.815C23.4473 18.9967 23.5625 19.2431 23.5625 19.5ZM46.8747 8.53956C47.0797 8.72123 47.1949 8.96759 47.1949 9.22447C47.1949 9.48135 47.0797 9.72771 46.8747 9.90937L43.7816 12.6509C43.6799 12.7409 43.5592 12.8122 43.4264 12.8608C43.2935 12.9095 43.1512 12.9344 43.0075 12.9344C42.7173 12.9342 42.439 12.8319 42.2339 12.65C42.1324 12.5599 42.0518 12.453 41.9969 12.3354C41.942 12.2177 41.9138 12.0917 41.9139 11.9644C41.9141 11.7073 42.0296 11.4608 42.235 11.2792L45.3281 8.53956C45.5332 8.35795 45.8114 8.25593 46.1014 8.25593C46.3914 8.25593 46.6696 8.35795 46.8747 8.53956ZM26.765 26.351C26.97 26.5327 27.0852 26.779 27.0852 27.0359C27.0852 27.2928 26.97 27.5391 26.765 27.7208L23.6719 30.4604C23.4656 30.6369 23.1893 30.7345 22.9025 30.7323C22.6158 30.7301 22.3414 30.6283 22.1386 30.4486C21.9358 30.269 21.8208 30.026 21.8183 29.772C21.8158 29.518 21.9261 29.2733 22.1253 29.0906L25.2184 26.351C25.4235 26.1694 25.7017 26.0674 25.9917 26.0674C26.2817 26.0674 26.5599 26.1694 26.765 26.351ZM46.8747 30.4604C46.6696 30.642 46.3914 30.7441 46.1014 30.7441C45.8114 30.7441 45.5332 30.642 45.3281 30.4604L42.235 27.7208C42.0358 27.5381 41.9255 27.2934 41.928 27.0394C41.9305 26.7854 42.0455 26.5424 42.2483 26.3628C42.4511 26.1832 42.7254 26.0813 43.0122 26.0791C43.299 26.0769 43.5753 26.1745 43.7816 26.351L46.8747 29.0906C47.0797 29.2723 47.1949 29.5187 47.1949 29.7755C47.1949 30.0324 47.0797 30.2788 46.8747 30.4604ZM26.765 12.6509C26.5599 12.8326 26.2817 12.9346 25.9917 12.9346C25.7017 12.9346 25.4235 12.8326 25.2184 12.6509L22.1253 9.90937C22.0208 9.82001 21.9375 9.71311 21.8802 9.59492C21.8229 9.47673 21.7927 9.34961 21.7914 9.22098C21.7902 9.09235 21.8179 8.96479 21.8729 8.84573C21.9278 8.72668 22.0091 8.61851 22.1118 8.52755C22.2145 8.4366 22.3366 8.36466 22.471 8.31595C22.6054 8.26724 22.7494 8.24273 22.8947 8.24385C23.0399 8.24497 23.1834 8.27169 23.3168 8.32246C23.4503 8.37324 23.571 8.44704 23.6719 8.53956L26.765 11.2792C26.8669 11.3692 26.9477 11.4761 27.0028 11.5938C27.0579 11.7115 27.0863 11.8376 27.0863 11.9651C27.0863 12.0925 27.0579 12.2187 27.0028 12.3364C26.9477 12.454 26.8669 12.5609 26.765 12.6509Z" fill="black"/>
</g>
<defs>
<clipPath id="clip0_20_2">
<rect width="35" height="31" fill="white" transform="translate(75 4)"/>
</clipPath>
<clipPath id="clip1_20_2">
<rect width="35" height="31" fill="white" transform="translate(17 4)"/>
</clipPath>
</defs>
</svg>
