<svg width="178" height="55" viewBox="0 0 178 55" fill="none" xmlns="http://www.w3.org/2000/svg">
<rect width="178" height="55" rx="15" fill="#7B415F"/>
<path d="M19.5469 33.4844C20.4635 33.849 21.1979 34.1302 21.75 34.3281C22.3021 34.526 22.9062 34.6979 23.5625 34.8438C24.2292 34.9896 24.8906 35.0625 25.5469 35.0625C25.8385 35.0625 26.0469 35.0365 26.1719 34.9844C26.2031 34.9427 26.2292 34.8802 26.25 34.7969C26.2812 34.7031 26.2969 34.6094 26.2969 34.5156C26.2969 34.3073 26.1771 34.1354 25.9375 34C25.5625 33.7917 24.8958 33.4635 23.9375 33.0156C22.625 32.3906 21.5833 31.8333 20.8125 31.3438C20.0521 30.8542 19.4062 30.2031 18.875 29.3906C18.3542 28.5781 18.0938 27.5573 18.0938 26.3281C18.0938 24.5677 18.6198 23.1562 19.6719 22.0938C20.724 21.0208 22.3906 20.4844 24.6719 20.4844C27.3906 20.4844 29.5052 20.8385 31.0156 21.5469C31.0885 21.849 31.125 22.2292 31.125 22.6875C31.125 23.5625 30.9896 24.4583 30.7188 25.375C30.4479 26.2812 30.0938 26.9531 29.6562 27.3906C29.0625 27.1927 28.224 26.875 27.1406 26.4375C26.349 26.125 25.7188 25.8854 25.25 25.7188C24.7917 25.5417 24.3698 25.4167 23.9844 25.3438C23.776 25.3958 23.6094 25.5208 23.4844 25.7188C23.3594 25.9062 23.2969 26.1302 23.2969 26.3906C23.2969 26.6198 23.3646 26.8125 23.5 26.9688C23.6354 27.125 23.7865 27.25 23.9531 27.3438C24.1302 27.4271 24.3802 27.5417 24.7031 27.6875C24.8698 27.7604 25.026 27.8281 25.1719 27.8906C25.3177 27.9427 25.4531 27.9948 25.5781 28.0469C26.3906 28.3906 27.0312 28.6719 27.5 28.8906C27.9688 29.1094 28.4219 29.3698 28.8594 29.6719C29.6615 30.224 30.2917 30.8542 30.75 31.5625C31.2083 32.2708 31.4375 33.0469 31.4375 33.8906C31.4375 35.0573 31.1042 36.0677 30.4375 36.9219C29.7812 37.7656 28.9375 38.3802 27.9062 38.7656C27.3646 38.9635 26.7708 39.1042 26.125 39.1875C25.4896 39.2812 24.7448 39.3281 23.8906 39.3281C22.8802 39.3281 21.8385 39.1354 20.7656 38.75C19.7031 38.3542 18.8906 37.6979 18.3281 36.7812C18.3385 36.1458 18.4219 35.5938 18.5781 35.125C18.7448 34.6458 19.0677 34.099 19.5469 33.4844ZM33.1719 29.9219C33.1719 28.1198 33.474 26.5104 34.0781 25.0938C34.6823 23.6771 35.6146 22.5573 36.875 21.7344C38.1458 20.901 39.7292 20.4844 41.625 20.4844C42.6146 20.4844 43.6042 20.6042 44.5938 20.8438C45.5833 21.0729 46.4219 21.4583 47.1094 22C47.7448 22.5104 48.2031 23.1875 48.4844 24.0312C48.776 24.8646 48.9219 25.7917 48.9219 26.8125C48.9219 27.4896 48.8646 28.1823 48.75 28.8906C48.625 29.099 48.3802 29.375 48.0156 29.7188C47.651 30.0521 47.224 30.3802 46.7344 30.7031C46.2448 31.026 45.7708 31.276 45.3125 31.4531C44.875 31.4844 44.4219 31.5 43.9531 31.5C43.1302 31.5 42.2969 31.4635 41.4531 31.3906C40.6094 31.3177 39.8698 31.2344 39.2344 31.1406C39.3177 32.026 39.5885 32.7969 40.0469 33.4531C40.5052 34.1094 41.2344 34.4375 42.2344 34.4375C42.3281 34.4375 42.4792 34.4271 42.6875 34.4062C43.3229 34.3438 44.0625 34.1771 44.9062 33.9062C45.7604 33.625 46.6094 33.3021 47.4531 32.9375C47.849 33.3333 48.1406 33.7292 48.3281 34.125C48.5156 34.5208 48.6458 35.0885 48.7188 35.8281C48.3958 36.2031 47.8698 36.6615 47.1406 37.2031C46.4219 37.7448 45.5417 38.2344 44.5 38.6719C43.4583 39.099 42.3698 39.3125 41.2344 39.3125C39.526 39.3125 38.0625 38.901 36.8438 38.0781C35.6354 37.2448 34.7188 36.1198 34.0938 34.7031C33.4792 33.276 33.1719 31.6823 33.1719 29.9219ZM43.2344 26.3281C43.0885 26.1719 42.8438 26.0521 42.5 25.9688C42.1562 25.875 41.7969 25.8281 41.4219 25.8281C41.1198 25.8281 40.8125 25.8542 40.5 25.9062C40.1979 25.9583 40.0156 26.0156 39.9531 26.0781C39.599 26.776 39.375 27.5677 39.2812 28.4531L43.4531 28.0469L43.2344 26.3281ZM50.8906 29.9219C50.8906 28.1198 51.1927 26.5104 51.7969 25.0938C52.401 23.6771 53.3333 22.5573 54.5938 21.7344C55.8646 20.901 57.4479 20.4844 59.3438 20.4844C59.9896 20.4844 60.7292 20.526 61.5625 20.6094C62.4062 20.6823 63.2135 20.7969 63.9844 20.9531L64.2969 21.1719C64.7656 21.4948 65.1094 21.7552 65.3281 21.9531C65.5573 22.1406 65.7969 22.4062 66.0469 22.75C66.0469 23.3125 65.9688 24.0885 65.8125 25.0781C65.6667 26.0573 65.4792 26.9688 65.25 27.8125C65.0208 28.6562 64.8021 29.1979 64.5938 29.4375C64.25 29.6146 63.6927 29.7031 62.9219 29.7031C62.5469 29.7031 62.1927 29.6771 61.8594 29.625C61.5365 29.5625 61.2917 29.4844 61.125 29.3906L60.7969 26.5C60.6406 26.3229 60.2812 26.1823 59.7188 26.0781C59.1667 25.9635 58.6562 25.9062 58.1875 25.9062C58.0417 25.9062 57.9062 25.9167 57.7812 25.9375C57.5417 26.4271 57.3594 27.0521 57.2344 27.8125C57.1094 28.5729 57.0469 29.349 57.0469 30.1406C57.0469 31.2865 57.2344 32.2604 57.6094 33.0625C57.9844 33.8542 58.75 34.25 59.9062 34.25C60.4792 34.25 61.0417 34.1562 61.5938 33.9688C62.1562 33.7812 62.8646 33.4948 63.7188 33.1094C64.0729 32.9427 64.3385 32.8229 64.5156 32.75C64.9323 33.1667 65.2604 33.6042 65.5 34.0625C65.7396 34.5208 65.8958 35.1094 65.9688 35.8281C65.3021 36.6094 64.3646 37.3854 63.1562 38.1562C61.9583 38.9271 60.5573 39.3125 58.9531 39.3125C57.2448 39.3125 55.7812 38.901 54.5625 38.0781C53.3542 37.2448 52.4375 36.1198 51.8125 34.7031C51.1979 33.276 50.8906 31.6823 50.8906 29.9219ZM67.9219 29.7656C67.9219 27.8802 68.224 26.2448 68.8281 24.8594C69.4323 23.474 70.3594 22.401 71.6094 21.6406C72.8594 20.8698 74.4271 20.4844 76.3125 20.4844C78.3958 20.4844 80.0312 20.875 81.2188 21.6562C82.4062 22.4271 83.2344 23.5 83.7031 24.875C84.1823 26.25 84.4219 27.9323 84.4219 29.9219C84.4219 31.724 84.1042 33.3333 83.4688 34.75C82.8438 36.1562 81.8958 37.2708 80.625 38.0938C79.3646 38.9062 77.8177 39.3125 75.9844 39.3125C73.151 39.3125 71.099 38.4427 69.8281 36.7031C68.5573 34.9531 67.9219 32.6406 67.9219 29.7656ZM76.625 34.7344C77.1562 34.7344 77.4792 34.6927 77.5938 34.6094C77.8333 34.1927 78.0156 33.6042 78.1406 32.8438C78.2656 32.0833 78.3281 31.2604 78.3281 30.375C78.3281 29.5625 78.276 28.8021 78.1719 28.0938C78.0677 27.375 77.9219 26.8125 77.7344 26.4062C77.6198 26.2708 77.3906 26.1719 77.0469 26.1094C76.7031 26.0365 76.3281 26 75.9219 26C75.3906 26 75.026 26.0573 74.8281 26.1719C74.3073 27.0677 74.0469 28.3125 74.0469 29.9062C74.0469 30.6562 74.1042 31.4219 74.2188 32.2031C74.3333 32.9844 74.4792 33.6927 74.6562 34.3281C74.7812 34.4635 75.0365 34.5677 75.4219 34.6406C75.8073 34.7031 76.2083 34.7344 76.625 34.7344ZM88.0156 33.5625C88.0156 31.8646 88.0365 30.5833 88.0781 29.7188C88.1198 28.8438 88.2292 27.5625 88.4062 25.875L86.5938 25.6406C86.375 24.9635 86.2292 24.3594 86.1562 23.8281C86.0938 23.2969 86.0625 22.6094 86.0625 21.7656C86.2292 21.6198 86.5052 21.4479 86.8906 21.25C87.2865 21.0417 87.7552 20.8646 88.2969 20.7188C88.8385 20.5625 89.3854 20.4844 89.9375 20.4844C91.1979 20.4844 92.0885 20.7552 92.6094 21.2969C93.1406 21.8385 93.4062 22.651 93.4062 23.7344C93.4062 24.3385 93.3177 25.1562 93.1406 26.1875C92.849 27.8438 92.7031 28.7135 92.7031 28.7969C92.7031 28.849 92.7396 28.901 92.8125 28.9531C92.8854 28.9948 92.9635 29.0156 93.0469 29.0156C93.1406 29.0156 93.2031 28.9792 93.2344 28.9062C93.651 27.25 94.0677 25.8646 94.4844 24.75C94.901 23.6354 95.5312 22.6458 96.375 21.7812C97.2188 20.9167 98.3125 20.4844 99.6562 20.4844C101.323 20.4844 102.521 20.9948 103.25 22.0156C103.979 23.026 104.344 24.3021 104.344 25.8438C104.344 27.2188 104.182 28.5469 103.859 29.8281C103.536 31.099 103.135 32.4271 102.656 33.8125C102.677 33.7604 102.604 33.9635 102.438 34.4219L102.469 34.4531L104.75 33.5156C105.562 34.2135 106.036 35.1406 106.172 36.2969C106.172 36.3698 105.938 36.6667 105.469 37.1875C105.01 37.7083 104.401 38.1927 103.641 38.6406C102.88 39.0885 102.005 39.3125 101.016 39.3125C100.026 39.3125 99.2188 39.0469 98.5938 38.5156C97.9688 37.9844 97.6562 37.0781 97.6562 35.7969C97.6562 34.776 97.6979 33.4115 97.7812 31.7031C97.8646 29.9948 97.9479 28.6198 98.0312 27.5781C97.7604 27.2865 97.4271 27.1302 97.0312 27.1094C96.6667 27.5781 96.1302 28.5156 95.4219 29.9219C94.7135 31.3281 94.2135 32.3802 93.9219 33.0781C93.901 33.224 93.8906 33.3646 93.8906 33.5C93.8906 34.0208 93.9688 34.724 94.125 35.6094C94.2812 36.4844 94.474 37.3021 94.7031 38.0625C94.5156 38.4167 94.1302 38.7135 93.5469 38.9531C92.9635 39.1927 92.2448 39.3125 91.3906 39.3125C90.6198 39.3125 90 39.25 89.5312 39.125C89.0729 39 88.75 38.8698 88.5625 38.7344C88.375 38.5885 88.2812 38.5 88.2812 38.4688C88.2708 38.375 88.2448 38.1302 88.2031 37.7344C88.1615 37.3281 88.1198 36.7656 88.0781 36.0469C88.0365 35.3177 88.0156 34.4896 88.0156 33.5625ZM107.438 29.9844C107.438 28.401 107.656 26.8854 108.094 25.4375C108.542 23.9896 109.24 22.8021 110.188 21.875C111.146 20.9479 112.349 20.4844 113.797 20.4844C115.422 20.4844 116.974 21 118.453 22.0312L118.703 21.875C118.672 20.6562 118.521 19.5521 118.25 18.5625L115.078 18.3594C114.932 18.1719 114.818 17.8958 114.734 17.5312C114.651 17.1562 114.609 16.7708 114.609 16.375C114.609 15.8438 114.672 15.3854 114.797 15C115.422 14.5521 116.224 14.2135 117.203 13.9844C118.182 13.7552 119.161 13.6406 120.141 13.6406C121.224 13.6406 122.042 13.8698 122.594 14.3281C123.146 14.776 123.516 15.4583 123.703 16.375C123.901 17.2812 124 18.5417 124 20.1562C124 22.2812 123.911 24.6927 123.734 27.3906C123.557 30.0885 123.328 32.2917 123.047 34L122.984 34.2656L124.797 33.4844C125.099 33.8073 125.365 34.2031 125.594 34.6719C125.833 35.1302 125.984 35.6615 126.047 36.2656C125.901 36.5781 125.583 36.9792 125.094 37.4688C124.604 37.9479 124.005 38.375 123.297 38.75C122.589 39.125 121.849 39.3125 121.078 39.3125C120.214 39.3125 119.547 39.0573 119.078 38.5469C118.62 38.026 118.391 37.3646 118.391 36.5625C118.391 36.3542 118.443 35.9271 118.547 35.2812C118.661 34.6354 118.755 34.1875 118.828 33.9375L118.359 33.7969C117.828 35.6615 117.125 37.0469 116.25 37.9531C115.375 38.8594 114.292 39.3125 113 39.3125C111.615 39.3125 110.505 38.8542 109.672 37.9375C108.849 37.0104 108.271 35.849 107.938 34.4531C107.604 33.0573 107.438 31.5677 107.438 29.9844ZM118.156 29.7031C118.219 29.3281 118.25 28.8906 118.25 28.3906C118.25 28.0677 118.234 27.7604 118.203 27.4688C118.182 27.1771 118.156 26.9688 118.125 26.8438C117.708 26.5417 117.234 26.3281 116.703 26.2031C116.182 26.0781 115.703 26.0156 115.266 26.0156C114.995 26.0156 114.703 26.0417 114.391 26.0938C114.182 26.3021 114.016 26.7552 113.891 27.4531C113.766 28.1406 113.703 28.9167 113.703 29.7812C113.703 30.7083 113.766 31.6094 113.891 32.4844C114.026 33.349 114.214 34.026 114.453 34.5156C114.62 34.5156 114.943 34.2604 115.422 33.75C115.911 33.2292 116.417 32.5938 116.938 31.8438C117.458 31.0833 117.865 30.3698 118.156 29.7031ZM128.609 33.4844C129.526 33.849 130.26 34.1302 130.812 34.3281C131.365 34.526 131.969 34.6979 132.625 34.8438C133.292 34.9896 133.953 35.0625 134.609 35.0625C134.901 35.0625 135.109 35.0365 135.234 34.9844C135.266 34.9427 135.292 34.8802 135.312 34.7969C135.344 34.7031 135.359 34.6094 135.359 34.5156C135.359 34.3073 135.24 34.1354 135 34C134.625 33.7917 133.958 33.4635 133 33.0156C131.688 32.3906 130.646 31.8333 129.875 31.3438C129.115 30.8542 128.469 30.2031 127.938 29.3906C127.417 28.5781 127.156 27.5573 127.156 26.3281C127.156 24.5677 127.682 23.1562 128.734 22.0938C129.786 21.0208 131.453 20.4844 133.734 20.4844C136.453 20.4844 138.568 20.8385 140.078 21.5469C140.151 21.849 140.188 22.2292 140.188 22.6875C140.188 23.5625 140.052 24.4583 139.781 25.375C139.51 26.2812 139.156 26.9531 138.719 27.3906C138.125 27.1927 137.286 26.875 136.203 26.4375C135.411 26.125 134.781 25.8854 134.312 25.7188C133.854 25.5417 133.432 25.4167 133.047 25.3438C132.839 25.3958 132.672 25.5208 132.547 25.7188C132.422 25.9062 132.359 26.1302 132.359 26.3906C132.359 26.6198 132.427 26.8125 132.562 26.9688C132.698 27.125 132.849 27.25 133.016 27.3438C133.193 27.4271 133.443 27.5417 133.766 27.6875C133.932 27.7604 134.089 27.8281 134.234 27.8906C134.38 27.9427 134.516 27.9948 134.641 28.0469C135.453 28.3906 136.094 28.6719 136.562 28.8906C137.031 29.1094 137.484 29.3698 137.922 29.6719C138.724 30.224 139.354 30.8542 139.812 31.5625C140.271 32.2708 140.5 33.0469 140.5 33.8906C140.5 35.0573 140.167 36.0677 139.5 36.9219C138.844 37.7656 138 38.3802 136.969 38.7656C136.427 38.9635 135.833 39.1042 135.188 39.1875C134.552 39.2812 133.807 39.3281 132.953 39.3281C131.943 39.3281 130.901 39.1354 129.828 38.75C128.766 38.3542 127.953 37.6979 127.391 36.7812C127.401 36.1458 127.484 35.5938 127.641 35.125C127.807 34.6458 128.13 34.099 128.609 33.4844ZM146.516 32.7344C147.891 32.7344 148.891 33.0365 149.516 33.6406C150.151 34.2344 150.469 34.9844 150.469 35.8906C150.469 36.4948 150.276 37.0625 149.891 37.5938C149.516 38.1146 149.021 38.5312 148.406 38.8438C147.802 39.1562 147.172 39.3125 146.516 39.3125C145.859 39.3125 145.224 39.1562 144.609 38.8438C144.005 38.5312 143.51 38.1146 143.125 37.5938C142.75 37.0625 142.562 36.4948 142.562 35.8906C142.562 34.9844 142.875 34.2344 143.5 33.6406C144.135 33.0365 145.141 32.7344 146.516 32.7344ZM146.516 20.75C147.891 20.75 148.891 21.0521 149.516 21.6562C150.151 22.25 150.469 23 150.469 23.9062C150.469 24.5104 150.276 25.0781 149.891 25.6094C149.516 26.1302 149.021 26.5469 148.406 26.8594C147.802 27.1719 147.172 27.3281 146.516 27.3281C145.859 27.3281 145.224 27.1719 144.609 26.8594C144.005 26.5469 143.51 26.1302 143.125 25.6094C142.75 25.0781 142.562 24.5104 142.562 23.9062C142.562 23 142.875 22.25 143.5 21.6562C144.135 21.0521 145.141 20.75 146.516 20.75Z" fill="#D9D9D9"/>
</svg>
