<svg width="207" height="71" viewBox="0 0 207 71" fill="none" xmlns="http://www.w3.org/2000/svg">
<rect width="178" height="71" rx="15" fill="#7B415F"/>
<path d="M31.082 34.8729C31.082 35.9901 31.0469 37.1033 30.9766 38.2127C30.9062 39.3221 30.8242 40.4354 30.7305 41.5526L24.707 41.8338C24.8867 40.4744 25.0469 39.1151 25.1875 37.7557C25.3359 36.3885 25.4102 35.0213 25.4102 33.6541C25.4102 33.5682 25.4062 33.4197 25.3984 33.2088C25.3906 32.9901 25.375 32.744 25.3516 32.4705C25.3359 32.1971 25.3086 31.9158 25.2695 31.6268C25.2383 31.3299 25.1914 31.0604 25.1289 30.8182C25.0742 30.5682 25.0039 30.3651 24.918 30.2088C24.832 30.0526 24.7305 29.9744 24.6133 29.9744C24.3398 29.9744 24.125 30.0799 23.9688 30.2908C23.8125 30.494 23.6953 30.7401 23.6172 31.0291C23.5469 31.3182 23.5039 31.6151 23.4883 31.9197C23.4727 32.2166 23.4648 32.4588 23.4648 32.6463C23.4648 32.9744 23.4727 33.3026 23.4883 33.6307C23.5039 33.9588 23.5117 34.2947 23.5117 34.6385C23.5117 35.8494 23.4805 37.0565 23.418 38.2596C23.3633 39.4627 23.293 40.6697 23.207 41.8807L17.6523 42.0916C17.832 40.7322 17.9883 39.3768 18.1211 38.0252C18.2617 36.6658 18.332 35.3026 18.332 33.9354C18.332 33.8494 18.3281 33.6932 18.3203 33.4666C18.3125 33.2401 18.2969 32.9861 18.2734 32.7049C18.2578 32.4236 18.2305 32.1307 18.1914 31.826C18.1523 31.5213 18.1016 31.244 18.0391 30.994C17.9844 30.7361 17.9141 30.5252 17.8281 30.3611C17.7422 30.1971 17.6367 30.1151 17.5117 30.1151C17.3164 30.1151 17.1523 30.1932 17.0195 30.3494C16.8867 30.4979 16.7773 30.6932 16.6914 30.9354C16.6133 31.1776 16.5508 31.4471 16.5039 31.744C16.4648 32.033 16.4336 32.3182 16.4102 32.5994C16.3945 32.8807 16.3828 33.1424 16.375 33.3846C16.375 33.619 16.3711 33.7947 16.3633 33.9119L16.1055 42.4666H10.1992C10.3242 41.1463 10.4492 39.8221 10.5742 38.494C10.707 37.1658 10.8203 35.8416 10.9141 34.5213C11.0156 33.1932 11.0977 31.8651 11.1602 30.5369C11.2227 29.2088 11.2539 27.8807 11.2539 26.5526L16.832 26.3182L16.8086 27.6776C16.9805 27.4588 17.1758 27.2401 17.3945 27.0213C17.6133 26.7947 17.8438 26.5955 18.0859 26.4236C18.3359 26.244 18.5977 26.0994 18.8711 25.9901C19.1523 25.8807 19.4414 25.826 19.7383 25.826C20.1211 25.826 20.4648 25.8572 20.7695 25.9197C21.0742 25.9744 21.3477 26.0721 21.5898 26.2127C21.8398 26.3533 22.0586 26.5486 22.2461 26.7986C22.4336 27.0408 22.5977 27.3494 22.7383 27.7244C22.9883 27.451 23.2383 27.1971 23.4883 26.9627C23.7461 26.7283 24.0156 26.5291 24.2969 26.3651C24.5781 26.1932 24.8828 26.0604 25.2109 25.9666C25.5391 25.8729 25.9023 25.826 26.3008 25.826C27.0586 25.826 27.7031 25.9744 28.2344 26.2713C28.7656 26.5604 29.207 26.9471 29.5586 27.4315C29.918 27.9158 30.1953 28.4705 30.3906 29.0955C30.5938 29.7205 30.7461 30.369 30.8477 31.0408C30.9492 31.7127 31.0117 32.3807 31.0352 33.0447C31.0664 33.7088 31.082 34.3182 31.082 34.8729ZM46.6445 33.8416C46.6445 34.5526 46.5625 35.2401 46.3984 35.9041C46.2344 36.5604 45.9961 37.1776 45.6836 37.7557C45.3789 38.3338 45.0039 38.8651 44.5586 39.3494C44.1211 39.826 43.625 40.2361 43.0703 40.5799C42.5234 40.9236 41.9258 41.1932 41.2773 41.3885C40.6289 41.576 39.9414 41.6697 39.2148 41.6697C38.5117 41.6697 37.8398 41.5799 37.1992 41.4002C36.5664 41.2205 35.9727 40.9705 35.418 40.6502C34.8633 40.3221 34.3594 39.9315 33.9062 39.4783C33.4609 39.0174 33.0781 38.5096 32.7578 37.9549C32.4453 37.3924 32.1992 36.7908 32.0195 36.1502C31.8477 35.5096 31.7617 34.8416 31.7617 34.1463C31.7617 33.4666 31.8438 32.8026 32.0078 32.1541C32.1719 31.4979 32.4062 30.8807 32.7109 30.3026C33.0234 29.7244 33.3984 29.1932 33.8359 28.7088C34.2734 28.2244 34.7617 27.8065 35.3008 27.4549C35.8477 27.1033 36.4375 26.8299 37.0703 26.6346C37.7031 26.4393 38.3711 26.3416 39.0742 26.3416C40.207 26.3416 41.2383 26.5174 42.168 26.869C43.1055 27.2205 43.9023 27.7244 44.5586 28.3807C45.2227 29.0291 45.7344 29.8182 46.0938 30.7479C46.4609 31.6697 46.6445 32.701 46.6445 33.8416ZM41.4414 34.1463C41.4414 33.8104 41.3906 33.4861 41.2891 33.1736C41.1953 32.8533 41.0547 32.5721 40.8672 32.3299C40.6797 32.0799 40.4453 31.8807 40.1641 31.7322C39.8906 31.576 39.5742 31.4979 39.2148 31.4979C38.8477 31.4979 38.5195 31.5643 38.2305 31.6971C37.9414 31.8299 37.6914 32.0135 37.4805 32.2479C37.2773 32.4744 37.1211 32.744 37.0117 33.0565C36.9023 33.3611 36.8477 33.6854 36.8477 34.0291C36.8477 34.3572 36.8945 34.6854 36.9883 35.0135C37.082 35.3416 37.2227 35.6385 37.4102 35.9041C37.5977 36.1697 37.8281 36.3846 38.1016 36.5486C38.3828 36.7127 38.707 36.7947 39.0742 36.7947C39.4414 36.7947 39.7695 36.7244 40.0586 36.5838C40.3555 36.4354 40.6055 36.2401 40.8086 35.9979C41.0117 35.7479 41.168 35.4627 41.2773 35.1424C41.3867 34.8221 41.4414 34.4901 41.4414 34.1463ZM61.3984 26.3885L57.1094 42.2322L51.2969 42.5604L46.0234 27.2557L51.5781 26.7401L53.8281 35.6463L56.0078 26.0369L61.3984 26.3885ZM74.2305 33.3494C74.2305 34.0291 74.1836 34.7088 74.0898 35.3885C72.7539 35.4744 71.4258 35.6151 70.1055 35.8104C68.7852 35.9979 67.4648 36.1854 66.1445 36.3729C66.3477 36.9354 66.6641 37.3846 67.0938 37.7205C67.5312 38.0565 68.0508 38.2244 68.6523 38.2244C68.9648 38.2244 69.3047 38.1658 69.6719 38.0486C70.0469 37.9315 70.418 37.7869 70.7852 37.6151C71.1523 37.4354 71.5039 37.244 71.8398 37.0408C72.1758 36.8377 72.4648 36.6541 72.707 36.4901L72.1445 41.8104C71.8398 42.0447 71.5078 42.244 71.1484 42.408C70.7969 42.5721 70.4297 42.7049 70.0469 42.8065C69.6641 42.908 69.2773 42.9822 68.8867 43.0291C68.4961 43.076 68.1133 43.0994 67.7383 43.0994C66.9648 43.0994 66.2578 42.994 65.6172 42.783C64.9766 42.5721 64.3945 42.2791 63.8711 41.9041C63.3555 41.5213 62.9023 41.0721 62.5117 40.5565C62.1211 40.0408 61.7969 39.4783 61.5391 38.869C61.2812 38.2596 61.0859 37.6151 60.9531 36.9354C60.8203 36.2557 60.7539 35.5682 60.7539 34.8729C60.7539 34.1463 60.8203 33.4197 60.9531 32.6932C61.0859 31.9666 61.2852 31.2674 61.5508 30.5955C61.8242 29.9236 62.1641 29.3026 62.5703 28.7322C62.9844 28.1541 63.4648 27.6502 64.0117 27.2205C64.5586 26.7908 65.1758 26.4549 65.8633 26.2127C66.5586 25.9705 67.3242 25.8494 68.1602 25.8494C68.8555 25.8494 69.4883 25.9471 70.0586 26.1424C70.6367 26.3299 71.1484 26.5955 71.5938 26.9393C72.0469 27.2752 72.4375 27.6776 72.7656 28.1463C73.1016 28.6151 73.375 29.1307 73.5859 29.6932C73.8047 30.2479 73.9648 30.8377 74.0664 31.4627C74.1758 32.0799 74.2305 32.7088 74.2305 33.3494ZM69.543 32.7401C69.543 32.5213 69.5195 32.2986 69.4727 32.0721C69.4258 31.8377 69.3477 31.6268 69.2383 31.4393C69.1367 31.2518 69 31.0994 68.8281 30.9822C68.6562 30.8572 68.4414 30.7947 68.1836 30.7947C67.8711 30.7947 67.5938 30.8807 67.3516 31.0526C67.1172 31.2166 66.9141 31.4276 66.7422 31.6854C66.5703 31.9354 66.4297 32.2088 66.3203 32.5057C66.2109 32.8026 66.1289 33.076 66.0742 33.326L69.543 32.9979V32.7401ZM95.3242 34.8729C95.3242 35.9901 95.2891 37.1033 95.2188 38.2127C95.1484 39.3221 95.0664 40.4354 94.9727 41.5526L88.9492 41.8338C89.1289 40.4744 89.2891 39.1151 89.4297 37.7557C89.5781 36.3885 89.6523 35.0213 89.6523 33.6541C89.6523 33.5682 89.6484 33.4197 89.6406 33.2088C89.6328 32.9901 89.6172 32.744 89.5938 32.4705C89.5781 32.1971 89.5508 31.9158 89.5117 31.6268C89.4805 31.3299 89.4336 31.0604 89.3711 30.8182C89.3164 30.5682 89.2461 30.3651 89.1602 30.2088C89.0742 30.0526 88.9727 29.9744 88.8555 29.9744C88.582 29.9744 88.3672 30.0799 88.2109 30.2908C88.0547 30.494 87.9375 30.7401 87.8594 31.0291C87.7891 31.3182 87.7461 31.6151 87.7305 31.9197C87.7148 32.2166 87.707 32.4588 87.707 32.6463C87.707 32.9744 87.7148 33.3026 87.7305 33.6307C87.7461 33.9588 87.7539 34.2947 87.7539 34.6385C87.7539 35.8494 87.7227 37.0565 87.6602 38.2596C87.6055 39.4627 87.5352 40.6697 87.4492 41.8807L81.8945 42.0916C82.0742 40.7322 82.2305 39.3768 82.3633 38.0252C82.5039 36.6658 82.5742 35.3026 82.5742 33.9354C82.5742 33.8494 82.5703 33.6932 82.5625 33.4666C82.5547 33.2401 82.5391 32.9861 82.5156 32.7049C82.5 32.4236 82.4727 32.1307 82.4336 31.826C82.3945 31.5213 82.3438 31.244 82.2812 30.994C82.2266 30.7361 82.1562 30.5252 82.0703 30.3611C81.9844 30.1971 81.8789 30.1151 81.7539 30.1151C81.5586 30.1151 81.3945 30.1932 81.2617 30.3494C81.1289 30.4979 81.0195 30.6932 80.9336 30.9354C80.8555 31.1776 80.793 31.4471 80.7461 31.744C80.707 32.033 80.6758 32.3182 80.6523 32.5994C80.6367 32.8807 80.625 33.1424 80.6172 33.3846C80.6172 33.619 80.6133 33.7947 80.6055 33.9119L80.3477 42.4666H74.4414C74.5664 41.1463 74.6914 39.8221 74.8164 38.494C74.9492 37.1658 75.0625 35.8416 75.1562 34.5213C75.2578 33.1932 75.3398 31.8651 75.4023 30.5369C75.4648 29.2088 75.4961 27.8807 75.4961 26.5526L81.0742 26.3182L81.0508 27.6776C81.2227 27.4588 81.418 27.2401 81.6367 27.0213C81.8555 26.7947 82.0859 26.5955 82.3281 26.4236C82.5781 26.244 82.8398 26.0994 83.1133 25.9901C83.3945 25.8807 83.6836 25.826 83.9805 25.826C84.3633 25.826 84.707 25.8572 85.0117 25.9197C85.3164 25.9744 85.5898 26.0721 85.832 26.2127C86.082 26.3533 86.3008 26.5486 86.4883 26.7986C86.6758 27.0408 86.8398 27.3494 86.9805 27.7244C87.2305 27.451 87.4805 27.1971 87.7305 26.9627C87.9883 26.7283 88.2578 26.5291 88.5391 26.3651C88.8203 26.1932 89.125 26.0604 89.4531 25.9666C89.7812 25.8729 90.1445 25.826 90.543 25.826C91.3008 25.826 91.9453 25.9744 92.4766 26.2713C93.0078 26.5604 93.4492 26.9471 93.8008 27.4315C94.1602 27.9158 94.4375 28.4705 94.6328 29.0955C94.8359 29.7205 94.9883 30.369 95.0898 31.0408C95.1914 31.7127 95.2539 32.3807 95.2773 33.0447C95.3086 33.7088 95.3242 34.3182 95.3242 34.8729ZM109.48 33.3494C109.48 34.0291 109.434 34.7088 109.34 35.3885C108.004 35.4744 106.676 35.6151 105.355 35.8104C104.035 35.9979 102.715 36.1854 101.395 36.3729C101.598 36.9354 101.914 37.3846 102.344 37.7205C102.781 38.0565 103.301 38.2244 103.902 38.2244C104.215 38.2244 104.555 38.1658 104.922 38.0486C105.297 37.9315 105.668 37.7869 106.035 37.6151C106.402 37.4354 106.754 37.244 107.09 37.0408C107.426 36.8377 107.715 36.6541 107.957 36.4901L107.395 41.8104C107.09 42.0447 106.758 42.244 106.398 42.408C106.047 42.5721 105.68 42.7049 105.297 42.8065C104.914 42.908 104.527 42.9822 104.137 43.0291C103.746 43.076 103.363 43.0994 102.988 43.0994C102.215 43.0994 101.508 42.994 100.867 42.783C100.227 42.5721 99.6445 42.2791 99.1211 41.9041C98.6055 41.5213 98.1523 41.0721 97.7617 40.5565C97.3711 40.0408 97.0469 39.4783 96.7891 38.869C96.5312 38.2596 96.3359 37.6151 96.2031 36.9354C96.0703 36.2557 96.0039 35.5682 96.0039 34.8729C96.0039 34.1463 96.0703 33.4197 96.2031 32.6932C96.3359 31.9666 96.5352 31.2674 96.8008 30.5955C97.0742 29.9236 97.4141 29.3026 97.8203 28.7322C98.2344 28.1541 98.7148 27.6502 99.2617 27.2205C99.8086 26.7908 100.426 26.4549 101.113 26.2127C101.809 25.9705 102.574 25.8494 103.41 25.8494C104.105 25.8494 104.738 25.9471 105.309 26.1424C105.887 26.3299 106.398 26.5955 106.844 26.9393C107.297 27.2752 107.688 27.6776 108.016 28.1463C108.352 28.6151 108.625 29.1307 108.836 29.6932C109.055 30.2479 109.215 30.8377 109.316 31.4627C109.426 32.0799 109.48 32.7088 109.48 33.3494ZM104.793 32.7401C104.793 32.5213 104.77 32.2986 104.723 32.0721C104.676 31.8377 104.598 31.6268 104.488 31.4393C104.387 31.2518 104.25 31.0994 104.078 30.9822C103.906 30.8572 103.691 30.7947 103.434 30.7947C103.121 30.7947 102.844 30.8807 102.602 31.0526C102.367 31.2166 102.164 31.4276 101.992 31.6854C101.82 31.9354 101.68 32.2088 101.57 32.5057C101.461 32.8026 101.379 33.076 101.324 33.326L104.793 32.9979V32.7401ZM124.797 36.8885C124.797 37.7713 124.785 38.6463 124.762 39.5135C124.746 40.3729 124.719 41.2401 124.68 42.1151L117.93 41.9979C118.164 40.6151 118.367 39.2361 118.539 37.8611C118.711 36.4783 118.797 35.0838 118.797 33.6776C118.797 33.576 118.793 33.4119 118.785 33.1854C118.777 32.9588 118.762 32.7049 118.738 32.4236C118.715 32.1346 118.68 31.8416 118.633 31.5447C118.594 31.2401 118.535 30.9627 118.457 30.7127C118.387 30.4627 118.297 30.2596 118.188 30.1033C118.086 29.9393 117.961 29.8572 117.812 29.8572C117.547 29.8572 117.32 29.9354 117.133 30.0916C116.953 30.2479 116.801 30.451 116.676 30.701C116.559 30.9432 116.465 31.2166 116.395 31.5213C116.324 31.826 116.27 32.1307 116.23 32.4354C116.199 32.7401 116.176 33.0291 116.16 33.3026C116.152 33.5682 116.148 33.7869 116.148 33.9588C116.109 35.3416 116.078 36.7166 116.055 38.0838C116.031 39.4432 116 40.8182 115.961 42.2088L109.984 42.4666C110.141 39.7088 110.289 36.9666 110.43 34.2401C110.578 31.5135 110.695 28.7713 110.781 26.0135L116.312 25.7322L116.266 27.6072C116.484 27.3416 116.719 27.0916 116.969 26.8572C117.227 26.6229 117.5 26.4236 117.789 26.2596C118.078 26.0877 118.383 25.9549 118.703 25.8611C119.031 25.7596 119.375 25.7088 119.734 25.7088C120.398 25.7088 120.98 25.8182 121.48 26.0369C121.98 26.2557 122.41 26.5526 122.77 26.9276C123.129 27.3026 123.43 27.7479 123.672 28.2635C123.914 28.7713 124.109 29.3143 124.258 29.8924C124.406 30.4705 124.52 31.076 124.598 31.7088C124.676 32.3338 124.727 32.951 124.75 33.5604C124.781 34.1697 124.797 34.7596 124.797 35.3299C124.797 35.9002 124.797 36.4197 124.797 36.8885ZM138.32 26.2947L138.203 31.2635L134.711 31.4041L134.289 42.2791L129.344 42.5369L128.898 31.6619L125.406 31.8494L125.547 26.3182L138.32 26.2947ZM151 36.8182C151 37.8885 150.812 38.8143 150.438 39.5955C150.07 40.369 149.562 41.0096 148.914 41.5174C148.273 42.0174 147.52 42.3885 146.652 42.6307C145.793 42.8651 144.867 42.9822 143.875 42.9822C143.492 42.9822 143.07 42.9315 142.609 42.8299C142.156 42.7283 141.695 42.6033 141.227 42.4549C140.758 42.2986 140.305 42.1346 139.867 41.9627C139.438 41.783 139.055 41.6151 138.719 41.4588L139.234 36.8651C139.898 37.2635 140.633 37.5682 141.438 37.7791C142.25 37.9822 143.047 38.0838 143.828 38.0838C143.977 38.0838 144.156 38.0799 144.367 38.0721C144.578 38.0565 144.777 38.0213 144.965 37.9666C145.16 37.9041 145.324 37.8143 145.457 37.6971C145.59 37.5799 145.656 37.4119 145.656 37.1932C145.656 37.0447 145.609 36.9197 145.516 36.8182C145.422 36.7088 145.301 36.6229 145.152 36.5604C145.004 36.4901 144.836 36.4393 144.648 36.408C144.461 36.369 144.277 36.3416 144.098 36.326C143.918 36.3104 143.75 36.3026 143.594 36.3026C143.438 36.3026 143.312 36.3026 143.219 36.3026C142.547 36.3026 141.934 36.1971 141.379 35.9861C140.832 35.7752 140.359 35.4783 139.961 35.0955C139.57 34.7049 139.266 34.2361 139.047 33.6893C138.828 33.1346 138.719 32.5213 138.719 31.8494C138.719 30.9276 138.902 30.1033 139.27 29.3768C139.645 28.6424 140.141 28.0213 140.758 27.5135C141.383 26.9979 142.098 26.6033 142.902 26.3299C143.707 26.0565 144.539 25.9197 145.398 25.9197C145.781 25.9197 146.176 25.9354 146.582 25.9666C146.988 25.9901 147.391 26.0369 147.789 26.1072C148.195 26.1776 148.59 26.2674 148.973 26.3768C149.355 26.4861 149.719 26.6229 150.062 26.7869L149.617 31.5447C149.086 31.3651 148.527 31.2166 147.941 31.0994C147.363 30.9744 146.797 30.9119 146.242 30.9119C146.141 30.9119 146.008 30.9158 145.844 30.9236C145.688 30.9236 145.52 30.9354 145.34 30.9588C145.168 30.9744 144.992 31.0018 144.812 31.0408C144.633 31.0799 144.473 31.1346 144.332 31.2049C144.191 31.2674 144.078 31.3533 143.992 31.4627C143.906 31.5721 143.867 31.701 143.875 31.8494C143.883 32.0213 143.945 32.1541 144.062 32.2479C144.188 32.3416 144.344 32.4119 144.531 32.4588C144.727 32.4979 144.938 32.5174 145.164 32.5174C145.398 32.5174 145.629 32.5135 145.855 32.5057C146.082 32.4901 146.293 32.4783 146.488 32.4705C146.684 32.4549 146.844 32.451 146.969 32.4588C147.594 32.4979 148.156 32.6307 148.656 32.8572C149.156 33.0838 149.578 33.3846 149.922 33.7596C150.273 34.1346 150.539 34.5838 150.719 35.1072C150.906 35.6229 151 36.1932 151 36.8182ZM156.602 40.4041C156.602 40.7479 156.535 41.0682 156.402 41.3651C156.27 41.6619 156.09 41.9236 155.863 42.1502C155.645 42.369 155.387 42.5447 155.09 42.6776C154.793 42.8026 154.477 42.8651 154.141 42.8651C153.797 42.8651 153.477 42.8026 153.18 42.6776C152.883 42.5447 152.621 42.369 152.395 42.1502C152.176 41.9236 152 41.6619 151.867 41.3651C151.742 41.0682 151.68 40.7479 151.68 40.4041C151.68 40.0682 151.742 39.7479 151.867 39.4432C152 39.1385 152.176 38.8768 152.395 38.658C152.621 38.4315 152.883 38.2518 153.18 38.119C153.477 37.9861 153.797 37.9197 154.141 37.9197C154.477 37.9197 154.793 37.9861 155.09 38.119C155.387 38.2518 155.645 38.4315 155.863 38.658C156.09 38.8768 156.27 39.1385 156.402 39.4432C156.535 39.7479 156.602 40.0682 156.602 40.4041ZM156.602 32.9041C156.602 33.2479 156.535 33.5682 156.402 33.8651C156.27 34.1619 156.09 34.4236 155.863 34.6502C155.645 34.869 155.387 35.0447 155.09 35.1776C154.793 35.3026 154.477 35.3651 154.141 35.3651C153.797 35.3651 153.477 35.3026 153.18 35.1776C152.883 35.0447 152.621 34.869 152.395 34.6502C152.176 34.4236 152 34.1619 151.867 33.8651C151.742 33.5682 151.68 33.2479 151.68 32.9041C151.68 32.5682 151.742 32.2479 151.867 31.9432C152 31.6385 152.176 31.3768 152.395 31.158C152.621 30.9315 152.883 30.7518 153.18 30.619C153.477 30.4861 153.797 30.4197 154.141 30.4197C154.477 30.4197 154.793 30.4861 155.09 30.619C155.387 30.7518 155.645 30.9315 155.863 31.158C156.09 31.3768 156.27 31.6385 156.402 31.9432C156.535 32.2479 156.602 32.5682 156.602 32.9041Z" fill="#D9D9D9"/>
</svg>
