<svg width="129" height="46" viewBox="0 0 129 46" fill="none" xmlns="http://www.w3.org/2000/svg">
<rect width="129" height="46" rx="23" fill="url(#paint0_linear_1_25)" fill-opacity="0.78"/>
<path d="M43.872 21.12C43.44 20.288 42.84 19.664 42.072 19.248C41.304 18.816 40.416 18.6 39.408 18.6C38.304 18.6 37.32 18.848 36.456 19.344C35.592 19.84 34.912 20.544 34.416 21.456C33.936 22.368 33.696 23.424 33.696 24.624C33.696 25.824 33.936 26.888 34.416 27.816C34.912 28.728 35.592 29.432 36.456 29.928C37.32 30.424 38.304 30.672 39.408 30.672C40.896 30.672 42.104 30.256 43.032 29.424C43.96 28.592 44.528 27.464 44.736 26.04H38.472V23.856H47.664V25.992C47.488 27.288 47.024 28.48 46.272 29.568C45.536 30.656 44.568 31.528 43.368 32.184C42.184 32.824 40.864 33.144 39.408 33.144C37.84 33.144 36.408 32.784 35.112 32.064C33.816 31.328 32.784 30.312 32.016 29.016C31.264 27.72 30.888 26.256 30.888 24.624C30.888 22.992 31.264 21.528 32.016 20.232C32.784 18.936 33.816 17.928 35.112 17.208C36.424 16.472 37.856 16.104 39.408 16.104C41.184 16.104 42.76 16.544 44.136 17.424C45.528 18.288 46.536 19.52 47.16 21.12H43.872ZM53.0985 16.32V33H50.3625V16.32H53.0985ZM65.3546 33L61.5146 26.328H59.4266V33H56.6906V16.32H62.4506C63.7306 16.32 64.8106 16.544 65.6906 16.992C66.5866 17.44 67.2506 18.04 67.6826 18.792C68.1306 19.544 68.3546 20.384 68.3546 21.312C68.3546 22.4 68.0346 23.392 67.3946 24.288C66.7706 25.168 65.8026 25.768 64.4906 26.088L68.6186 33H65.3546ZM59.4266 24.144H62.4506C63.4746 24.144 64.2426 23.888 64.7546 23.376C65.2826 22.864 65.5466 22.176 65.5466 21.312C65.5466 20.448 65.2906 19.776 64.7786 19.296C64.2666 18.8 63.4906 18.552 62.4506 18.552H59.4266V24.144ZM81.9107 29.592H74.9267L73.7267 33H70.8707L76.8467 16.296H80.0147L85.9907 33H83.1107L81.9107 29.592ZM81.1427 27.36L78.4307 19.608L75.6947 27.36H81.1427ZM97.2531 33L93.4131 26.328H91.3251V33H88.5891V16.32H94.3491C95.6291 16.32 96.7091 16.544 97.5891 16.992C98.4851 17.44 99.1491 18.04 99.5811 18.792C100.029 19.544 100.253 20.384 100.253 21.312C100.253 22.4 99.9331 23.392 99.2931 24.288C98.6691 25.168 97.7011 25.768 96.3891 26.088L100.517 33H97.2531ZM91.3251 24.144H94.3491C95.3731 24.144 96.1411 23.888 96.6531 23.376C97.1811 22.864 97.4451 22.176 97.4451 21.312C97.4451 20.448 97.1891 19.776 96.6771 19.296C96.1651 18.8 95.3891 18.552 94.3491 18.552H91.3251V24.144Z" fill="#0F0E0E"/>
<defs>
<linearGradient id="paint0_linear_1_25" x1="0" y1="23" x2="129" y2="23" gradientUnits="userSpaceOnUse">
<stop offset="0.168269" stop-color="#A74A4A"/>
<stop offset="0.9999" stop-color="#823939" stop-opacity="0.920673"/>
<stop offset="1" stop-color="#411D1D" stop-opacity="0.78"/>
</linearGradient>
</defs>
</svg>
