<svg width="74" height="74" viewBox="0 0 74 74" fill="none" xmlns="http://www.w3.org/2000/svg">
<circle cx="36.8889" cy="36.8889" r="36.8889" fill="url(#paint0_linear_1_19)"/>
<path d="M47.7724 28.9575H35.2924V34.4775C35.8257 33.8909 36.5724 33.4109 37.5324 33.0375C38.4924 32.6642 39.5324 32.4775 40.6524 32.4775C42.6524 32.4775 44.3057 32.9309 45.6124 33.8375C46.9457 34.7442 47.919 35.9175 48.5324 37.3575C49.1457 38.7975 49.4524 40.3575 49.4524 42.0375C49.4524 45.1575 48.5724 47.6375 46.8124 49.4775C45.0524 51.2909 42.5724 52.1975 39.3724 52.1975C37.239 52.1975 35.3857 51.8375 33.8124 51.1175C32.239 50.3709 31.0257 49.3442 30.1724 48.0375C29.319 46.7309 28.8524 45.2242 28.7724 43.5175H35.4524C35.6124 44.3442 35.999 45.0375 36.6124 45.5975C37.2257 46.1309 38.0657 46.3975 39.1324 46.3975C40.3857 46.3975 41.319 45.9975 41.9324 45.1975C42.5457 44.3975 42.8524 43.3309 42.8524 41.9975C42.8524 40.6909 42.5324 39.6909 41.8924 38.9975C41.2524 38.3042 40.319 37.9575 39.0924 37.9575C38.1857 37.9575 37.439 38.1842 36.8524 38.6375C36.2657 39.0642 35.879 39.6375 35.6924 40.3575H29.0924V22.9575H47.7724V28.9575Z" fill="#983333"/>
<path d="M25.4124 56.1975H51.4124V58.1975H25.4124V56.1975Z" fill="#983333"/>
<defs>
<linearGradient id="paint0_linear_1_19" x1="36.8889" y1="0" x2="36.8889" y2="73.7778" gradientUnits="userSpaceOnUse">
<stop stop-color="#C3A11B"/>
<stop offset="0.379808" stop-color="#BE9D1A"/>
<stop offset="1" stop-color="#5D4D0D"/>
</linearGradient>
</defs>
</svg>
